<?xml version="1.0" standalone="no"?>
<!DOCTYPE svg PUBLIC "-//W3C//DTD SVG 20010904//EN"
 "http://www.w3.org/TR/2001/REC-SVG-20010904/DTD/svg10.dtd">
<svg version="1.0" xmlns="http://www.w3.org/2000/svg"
 width="8000.000000pt" height="8000.000000pt" viewBox="0 0 8000.000000 8000.000000"
 preserveAspectRatio="xMidYMid meet">

<g transform="translate(0.000000,8000.000000) scale(0.100000,-0.100000)"
fill="#000000" stroke="none">
<path d="M38945 74150 c-4946 -99 -9758 -1228 -14260 -3346 -320 -150 -1188
-586 -1495 -749 -2245 -1199 -4278 -2576 -6185 -4189 -1362 -1153 -2708 -2488
-3866 -3836 -2138 -2491 -3885 -5239 -5232 -8230 -1756 -3902 -2800 -8247
-3002 -12505 -46 -978 -48 -2156 -5 -3115 235 -5196 1655 -10267 4162 -14855
2177 -3983 5150 -7504 8682 -10282 954 -750 2085 -1546 3111 -2188 1434 -898
2912 -1671 4475 -2342 4790 -2056 10066 -2945 15385 -2592 5155 341 10185
1852 14670 4407 2154 1227 4198 2713 6020 4378 413 377 595 552 1120 1078
1206 1207 2177 2323 3102 3566 2241 3013 3932 6432 4988 10085 650 2251 1050
4594 1180 6915 34 614 40 854 40 1660 0 902 1 886 -60 1079 -110 347 -409 644
-764 760 -231 75 -522 74 -749 -3 -440 -150 -757 -543 -802 -996 -5 -52 -14
-304 -20 -560 -17 -752 -53 -1357 -126 -2100 -581 -5966 -3060 -11581 -7130
-16145 -663 -743 -1461 -1549 -2204 -2226 -2367 -2155 -5097 -3948 -8030
-5272 -3394 -1531 -7036 -2432 -10690 -2642 -635 -36 -796 -40 -1695 -40 -901
0 -1096 5 -1705 41 -4382 258 -8634 1486 -12425 3586 -3104 1720 -5884 4019
-8171 6758 -1862 2229 -3398 4756 -4503 7409 -1802 4322 -2514 8950 -2085
13556 145 1564 417 3131 801 4610 1428 5512 4494 10427 8838 14171 4693 4043
10576 6435 16675 6778 732 42 1889 54 2505 28 1509 -65 2768 -207 4135 -467
1121 -214 2371 -533 3335 -853 653 -217 1319 -448 1660 -577 2173 -819 4300
-2002 6290 -3499 1040 -783 1963 -1585 2906 -2526 624 -623 986 -1015 1693
-1834 745 -863 1522 -1940 2205 -3053 78 -128 80 -133 59 -144 -11 -6 -658
-303 -1437 -660 -779 -357 -1452 -670 -1496 -696 -689 -396 -1019 -1201 -816
-1985 75 -286 216 -539 421 -751 112 -117 180 -174 303 -256 69 -46 10911
-5712 11094 -5798 324 -151 724 -196 1084 -123 658 134 1184 630 1352 1275 70
269 2819 12037 2833 12126 22 147 14 454 -16 594 -98 461 -367 855 -759 1116
-455 302 -1011 377 -1524 205 -75 -25 -3155 -1426 -3269 -1487 -15 -8 -24 0
-51 43 -19 29 -89 141 -157 248 -1111 1757 -2470 3521 -3937 5108 -590 638
-1468 1513 -2093 2087 -2768 2539 -5990 4659 -9395 6182 -4031 1804 -8292
2828 -12630 3038 -729 35 -1652 49 -2340 35z"/>
<path d="M38960 64190 c-160 -22 -288 -119 -362 -276 l-33 -69 -3 -1555 c-2
-1524 -2 -1556 17 -1620 65 -211 256 -340 484 -327 78 4 98 9 172 46 135 67
229 189 255 332 7 36 9 574 8 1580 l-3 1524 -22 57 c-80 213 -289 338 -513
308z"/>
<path d="M26609 60926 c-202 -56 -340 -239 -341 -451 -1 -45 6 -104 15 -135 9
-30 72 -152 140 -270 68 -118 406 -705 752 -1305 697 -1207 676 -1176 815
-1243 69 -33 84 -37 180 -40 88 -3 115 0 169 18 131 44 218 122 280 250 32 68
36 85 39 175 3 82 0 111 -17 162 -24 71 -1491 2621 -1549 2692 -46 57 -139
116 -220 141 -74 23 -191 25 -263 6z"/>
<path d="M51200 60856 c-31 -6 -83 -25 -115 -41 -128 -64 -104 -27 -905 -1415
-404 -701 -747 -1298 -761 -1327 -39 -76 -55 -180 -40 -272 49 -319 396 -495
681 -346 130 69 103 26 916 1435 450 779 757 1321 771 1360 57 164 11 355
-116 480 -69 68 -139 106 -228 125 -80 17 -128 18 -203 1z"/>
<path d="M33655 52429 c-839 -55 -1593 -248 -2281 -583 -574 -280 -997 -577
-1410 -990 -575 -576 -939 -1197 -1125 -1924 -61 -239 -93 -433 -124 -749 l-6
-63 1673 0 1673 0 18 87 c10 48 38 146 61 217 231 703 776 1141 1514 1217 142
14 427 7 547 -15 209 -38 438 -131 580 -236 306 -227 448 -532 432 -929 -14
-340 -116 -603 -355 -911 -132 -169 -457 -486 -747 -726 -487 -403 -863 -683
-3720 -2773 l-2600 -1902 -277 -1257 c-153 -691 -277 -1265 -278 -1274 0 -17
241 -18 4928 -18 l4927 0 294 1388 c162 763 296 1393 299 1400 3 9 -495 12
-2472 12 l-2476 0 0 28 c0 15 4 32 8 38 4 5 610 444 1347 974 1544 1111 1547
1113 1922 1396 1388 1047 2102 1769 2475 2503 160 316 261 655 315 1061 26
194 26 771 0 945 -65 434 -183 773 -391 1123 -239 402 -628 802 -1066 1098
-751 508 -1667 796 -2745 864 -186 12 -752 11 -940 -1z"/>
<path d="M45300 51938 c-1093 -1263 -2298 -2688 -3035 -3588 -937 -1145 -1990
-2499 -2649 -3404 l-188 -259 -314 -1599 c-173 -880 -314 -1604 -314 -1609 0
-5 1204 -9 3126 -9 l3126 0 -5 -22 c-10 -42 -387 -1835 -387 -1842 0 -3 788
-6 1750 -6 963 0 1750 2 1750 4 0 2 88 420 195 930 107 509 195 928 195 931 0
3 340 5 755 5 415 0 755 4 755 8 0 5 135 642 300 1417 165 775 300 1410 300
1412 0 2 -337 3 -750 3 -412 0 -750 3 -750 8 0 4 378 1780 840 3946 462 2167
840 3943 840 3948 0 4 -1191 8 -2648 8 l-2647 0 -245 -282z m1600 -2270 c0 -7
-262 -1247 -582 -2755 l-583 -2743 -1607 0 -1608 0 0 29 c0 37 273 423 854
1206 896 1209 2094 2699 3120 3880 318 365 346 395 377 395 16 0 29 -5 29 -12z"/>
<path d="M17613 51965 c-139 -31 -266 -133 -325 -262 -27 -59 -32 -82 -36
-170 -3 -84 -1 -114 17 -170 25 -81 79 -162 141 -214 50 -41 2599 -1515 2670
-1543 66 -27 200 -32 279 -12 222 57 362 253 348 489 -4 78 -9 99 -45 171 -28
57 -58 98 -94 132 -40 37 -368 231 -1342 794 -710 409 -1315 754 -1345 766
-73 30 -187 38 -268 19z"/>
<path d="M14255 39686 c-133 -42 -234 -130 -292 -253 -33 -68 -38 -88 -41
-171 -9 -198 77 -353 247 -445 107 -58 53 -57 1676 -57 1610 0 1564 -1 1671
53 111 57 207 173 239 291 13 47 16 89 13 158 -3 83 -8 103 -41 171 -48 103
-121 175 -224 225 l-78 37 -1565 2 c-1246 1 -1573 -1 -1605 -11z"/>
<path d="M60452 39530 c-81 -29 -132 -62 -190 -124 -259 -274 -101 -729 273
-786 48 -7 544 -10 1575 -8 l1505 3 60 24 c273 108 392 404 264 660 -43 85
-122 161 -215 208 l-78 38 -1570 2 c-1529 2 -1572 2 -1624 -17z"/>
<path d="M22322 37400 c-100 -61 -95 -204 8 -257 l44 -23 16662 0 16661 0 43
23 c101 53 107 190 11 254 l-34 23 -16681 0 c-16627 0 -16681 0 -16714 -20z"/>
<path d="M33705 33894 c-16 -2 -77 -9 -135 -15 -605 -64 -1202 -326 -1685
-740 -106 -90 -316 -305 -396 -404 -428 -529 -701 -1188 -793 -1915 -36 -275
-41 -739 -12 -955 80 -592 307 -1075 681 -1450 351 -352 794 -583 1313 -685
244 -47 332 -55 672 -54 356 0 467 11 740 73 792 182 1492 677 1953 1381 292
448 492 993 566 1546 31 234 36 317 36 639 0 236 -4 326 -18 425 -112 769
-485 1368 -1091 1750 -326 205 -684 328 -1126 386 -117 15 -629 28 -705 18z
m350 -1249 c436 -32 800 -339 954 -804 134 -408 114 -1019 -51 -1531 -226
-700 -664 -1189 -1203 -1345 -122 -35 -201 -45 -363 -45 -458 -2 -801 212
-1006 626 -119 242 -167 501 -161 864 13 742 275 1405 726 1834 250 237 547
379 849 404 89 7 124 7 255 -3z"/>
<path d="M51555 33890 c-256 -24 -439 -57 -635 -117 -782 -236 -1309 -760
-1445 -1437 -13 -67 -27 -161 -30 -211 -3 -49 -8 -107 -10 -128 -7 -53 13
-296 31 -386 103 -497 417 -857 989 -1132 195 -93 329 -141 768 -275 466 -141
598 -188 749 -266 237 -122 329 -253 330 -473 1 -169 -45 -270 -175 -391 -120
-111 -327 -196 -543 -224 -117 -16 -370 -13 -492 6 -357 53 -649 237 -775 490
-32 63 -42 93 -61 177 l-6 27 -731 0 -731 0 7 -82 c30 -379 112 -635 288 -892
70 -102 226 -269 333 -357 227 -185 568 -349 908 -435 328 -83 545 -108 951
-109 397 0 496 7 776 59 904 168 1581 727 1768 1461 67 264 77 590 26 842
-111 542 -479 895 -1220 1169 -66 25 -313 103 -550 174 -236 71 -467 142 -513
159 -398 147 -565 324 -563 594 3 290 236 509 621 583 126 24 395 24 527 0
367 -66 622 -270 688 -547 8 -35 15 -81 15 -101 l0 -38 710 0 710 0 0 55 c0
226 -73 532 -176 738 -294 584 -897 944 -1764 1053 -139 18 -642 27 -775 14z"/>
<path d="M25076 33783 c-2 -10 -64 -297 -136 -638 -72 -341 -167 -786 -210
-990 -44 -203 -230 -1081 -415 -1950 -185 -869 -376 -1769 -425 -1999 -50
-230 -90 -423 -90 -427 0 -5 352 -9 783 -9 l783 0 54 253 c29 138 146 686 260
1217 l207 965 1162 3 1163 2 -6 -27 c-3 -16 -35 -165 -70 -333 -36 -168 -81
-379 -100 -470 -19 -91 -82 -390 -141 -665 -58 -275 -122 -574 -141 -665 -19
-91 -39 -184 -44 -207 -6 -23 -10 -49 -10 -57 0 -15 78 -16 782 -14 l782 3
233 1095 c128 602 269 1266 313 1475 45 209 104 486 131 615 28 129 72 339 99
465 27 127 79 370 115 540 36 171 104 488 150 705 46 217 118 554 160 748 41
195 75 360 75 368 0 12 -114 14 -782 12 l-782 -3 -32 -150 c-18 -82 -100 -467
-184 -855 -234 -1090 -290 -1351 -290 -1357 0 -1 -525 -3 -1166 -3 l-1166 0 5
23 c3 12 47 213 97 447 50 234 102 475 115 535 13 61 83 385 155 720 71 336
132 618 134 628 4 16 -38 17 -779 17 -738 0 -784 -1 -789 -17z"/>
<path d="M38055 33788 c-2 -7 -40 -186 -85 -398 -44 -212 -105 -500 -135 -640
-30 -140 -111 -523 -180 -850 -69 -327 -142 -668 -161 -757 -19 -90 -50 -236
-69 -325 -19 -90 -59 -281 -90 -424 -76 -362 -86 -436 -90 -679 -4 -225 3
-307 40 -480 164 -762 785 -1314 1685 -1499 247 -50 360 -60 715 -61 356 0
472 10 720 61 837 175 1473 647 1805 1339 87 183 157 392 203 611 14 65 148
695 297 1399 149 704 294 1386 321 1515 28 129 70 330 94 445 24 116 69 327
100 470 30 143 55 266 55 273 0 10 -157 12 -767 10 l-767 -3 -17 -75 c-9 -41
-25 -120 -37 -175 -12 -55 -53 -251 -92 -435 -39 -184 -87 -409 -106 -500 -19
-91 -53 -248 -74 -350 -76 -358 -142 -667 -175 -825 -279 -1328 -323 -1528
-357 -1630 -207 -617 -687 -910 -1333 -813 -380 57 -670 311 -738 648 -47 232
-38 310 122 1065 63 297 304 1440 557 2638 52 246 94 449 94 452 0 3 -344 5
-765 5 -604 0 -767 -3 -770 -12z"/>
<path d="M44246 33783 c-3 -10 -32 -146 -65 -303 -33 -157 -103 -487 -156
-735 -53 -247 -107 -502 -120 -565 -13 -63 -51 -241 -84 -395 -105 -491 -660
-3103 -701 -3295 -22 -102 -64 -302 -95 -445 -30 -143 -55 -263 -55 -267 0 -5
346 -8 768 -8 l769 0 36 173 c84 399 178 846 317 1497 49 234 90 428 90 433 0
4 188 7 418 7 l417 0 274 -938 c151 -515 290 -990 309 -1054 l35 -118 799 0
800 0 -6 23 c-3 12 -161 517 -351 1121 -190 605 -344 1103 -343 1108 2 5 56
31 121 58 197 82 354 170 512 289 86 64 285 262 365 361 312 391 478 899 456
1395 -26 590 -268 1041 -724 1346 -185 124 -392 211 -626 264 -268 60 -215 58
-1748 62 -1347 4 -1407 3 -1412 -14z m2289 -1154 c217 -22 371 -86 490 -204
80 -80 124 -155 157 -270 20 -70 23 -101 22 -245 -1 -136 -5 -179 -23 -245
-85 -317 -325 -551 -666 -650 -158 -46 -267 -53 -822 -54 -282 -1 -513 0 -513
3 0 5 192 899 235 1091 13 61 42 196 65 300 22 105 45 211 51 238 l11 47 442
0 c248 0 490 -5 551 -11z"/>
<path d="M20055 28856 c-27 -7 -77 -27 -110 -44 -33 -17 -625 -357 -1315 -755
-922 -532 -1270 -738 -1311 -775 -193 -176 -198 -485 -10 -673 143 -142 360
-180 536 -91 125 62 2585 1488 2625 1521 59 48 125 148 147 219 24 80 22 219
-5 294 -82 230 -324 362 -557 304z"/>
<path d="M57562 28730 c-130 -28 -255 -128 -319 -256 -38 -78 -38 -78 -38
-203 0 -125 0 -127 37 -204 26 -53 55 -95 91 -130 43 -42 306 -197 1352 -801
714 -412 1321 -758 1349 -768 28 -11 83 -22 121 -25 196 -15 375 91 462 272
63 133 56 302 -17 430 -64 113 -48 102 -1417 894 -708 409 -1315 755 -1348
769 -67 28 -197 38 -273 22z"/>
<path d="M27977 20910 c-100 -17 -218 -89 -282 -172 -39 -50 -1473 -2532
-1519 -2628 -30 -62 -31 -71 -31 -191 0 -124 0 -126 37 -200 119 -241 391
-334 636 -217 128 60 99 16 909 1419 409 707 755 1312 770 1345 36 78 44 214
18 310 -62 230 -296 374 -538 334z"/>
<path d="M49598 20830 c-122 -31 -252 -137 -306 -251 -64 -134 -64 -278 2
-413 18 -39 360 -636 759 -1326 503 -872 740 -1272 773 -1309 100 -111 212
-156 373 -149 90 3 105 7 175 42 130 64 225 181 256 315 20 84 9 216 -24 287
-15 33 -361 637 -769 1344 -601 1041 -751 1295 -792 1336 -31 31 -80 65 -128
89 -72 36 -84 39 -180 41 -56 2 -119 -1 -139 -6z"/>
<path d="M38761 17964 c-168 -45 -306 -187 -341 -351 -7 -32 -10 -563 -8
-1594 l3 -1546 42 -85 c118 -237 391 -331 631 -217 122 59 227 195 252 328 6
34 10 593 10 1560 0 1322 -2 1514 -15 1566 -66 251 -327 405 -574 339z"/>
</g>
</svg>
