<?xml version="1.0" standalone="no"?>
<!DOCTYPE svg PUBLIC "-//W3C//DTD SVG 20010904//EN"
 "http://www.w3.org/TR/2001/REC-SVG-20010904/DTD/svg10.dtd">
<svg version="1.0" xmlns="http://www.w3.org/2000/svg"
 width="5556.000000pt" height="3960.000000pt" viewBox="0 0 5556.000000 3960.000000"
 preserveAspectRatio="xMidYMid meet">

<g transform="translate(0.000000,3960.000000) scale(0.100000,-0.100000)"
fill="#000000" stroke="none">
<path d="M33220 36862 l0 -590 623 -208 c342 -114 628 -209 635 -212 9 -3 12
118 12 585 l0 590 -622 208 c-343 115 -629 210 -635 213 -10 3 -13 -118 -13
-586z"/>
<path d="M32500 37205 l-605 -233 -3 -587 c-2 -557 -1 -587 15 -581 10 4 289
111 621 238 l602 231 0 584 c0 460 -3 583 -12 582 -7 0 -285 -106 -618 -234z"/>
<path d="M34570 36411 l0 -589 43 -16 c23 -9 329 -112 680 -229 l637 -212 -2
589 -3 590 -677 228 -678 227 0 -588z"/>
<path d="M31195 36704 c-319 -123 -619 -239 -667 -257 l-88 -32 0 -587 0 -588
63 24 c52 20 1228 471 1280 491 16 7 17 44 17 591 0 461 -3 584 -12 583 -7 -1
-274 -102 -593 -225z"/>
<path d="M36010 35923 l0 -588 671 -225 c368 -124 677 -226 685 -228 12 -3 14
78 14 583 l0 586 -32 13 c-48 20 -1318 446 -1329 446 -5 0 -9 -241 -9 -587z"/>
<path d="M29675 36120 l-670 -258 -3 -587 c-2 -556 -1 -586 15 -581 10 3 315
120 678 260 l660 254 3 586 c1 322 -1 586 -5 585 -5 0 -309 -117 -678 -259z"/>
<path d="M15458 36243 c7 -3 16 -2 19 1 4 3 -2 6 -13 5 -11 0 -14 -3 -6 -6z"/>
<path d="M15560 36212 c25 -10 49 -16 54 -14 11 6 -16 17 -64 26 -32 6 -31 5
10 -12z"/>
<path d="M15624 36188 c-4 -6 -3 -8 3 -5 6 4 16 1 22 -7 13 -16 43 -15 48 1 7
20 -61 30 -73 11z"/>
<path d="M33218 35917 c-2 -150 0 -279 4 -289 12 -26 184 -166 288 -234 181
-119 394 -220 640 -305 109 -38 314 -99 332 -99 4 0 7 174 6 387 l-3 387 -632
212 -632 213 -3 -272z"/>
<path d="M15590 36176 c0 -2 7 -7 16 -10 8 -3 12 -2 9 4 -6 10 -25 14 -25 6z"/>
<path d="M15709 36173 c-1 -5 -1 -16 0 -25 1 -10 -4 -18 -13 -18 -10 0 -16 -9
-16 -25 0 -14 -3 -25 -7 -25 -5 0 -16 -19 -27 -43 -10 -23 -22 -49 -27 -57
-14 -24 -81 -152 -98 -187 -9 -18 -19 -32 -23 -33 -4 0 -12 18 -18 40 -6 22
-14 40 -18 40 -4 -1 -23 -33 -42 -72 -19 -39 -40 -76 -46 -82 -20 -21 -84
-161 -84 -184 0 -13 -4 -21 -9 -17 -6 3 -15 -5 -22 -17 -7 -13 -17 -27 -23
-31 -7 -6 -5 -7 6 -4 9 3 18 1 21 -6 5 -16 217 7 340 39 316 80 523 230 666
482 22 41 41 75 41 78 0 6 -91 31 -341 94 -247 63 -258 65 -260 53z m-58 -236
c-8 -8 -11 -7 -11 4 0 20 13 34 18 19 3 -7 -1 -17 -7 -23z m-191 -168 c0 -5
-4 -9 -10 -9 -5 0 -10 7 -10 16 0 8 5 12 10 9 6 -3 10 -10 10 -16z m16 -51
c-9 -12 -16 -32 -16 -44 0 -11 -8 -28 -18 -37 -10 -10 -29 -39 -42 -67 -24
-51 -38 -63 -60 -50 -10 6 -6 15 16 37 16 15 31 37 32 48 5 26 21 45 38 45 20
0 17 17 -3 29 -16 9 -16 12 -3 20 10 7 17 6 22 -2 5 -8 9 -5 14 8 7 17 22 34
32 35 2 0 -4 -10 -12 -22z m-120 -115 c-10 -10 -19 5 -10 18 6 11 8 11 12 0 2
-7 1 -15 -2 -18z m-11 -134 c-19 -35 -38 -45 -65 -33 -14 7 -17 13 -10 24 8
13 10 12 10 -2 0 -30 36 -21 50 12 7 17 16 30 21 30 5 0 2 -14 -6 -31z"/>
<path d="M32503 35943 l-613 -236 0 -294 0 -295 33 20 c17 10 109 67 204 125
250 155 436 260 607 343 155 75 356 149 385 141 14 -3 16 17 13 215 -1 120 -6
218 -10 217 -4 0 -283 -106 -619 -236z"/>
<path d="M15625 36148 c-4 -13 -11 -25 -15 -28 -13 -9 -51 -90 -42 -90 4 0 13
12 20 28 11 27 11 27 7 -8 -2 -19 -5 -44 -7 -55 -2 -13 3 -20 12 -20 8 0 16
11 18 25 2 14 11 33 20 43 10 12 16 37 17 69 0 54 -18 76 -30 36z"/>
<path d="M37462 35438 l3 -591 678 -227 677 -226 -2 590 -3 589 -678 228 -677
228 2 -591z"/>
<path d="M726 35986 c-3 -13 -9 -68 -12 -123 l-7 -100 84 -46 c132 -72 370
-179 386 -173 8 3 12 2 9 -3 -3 -5 8 -14 24 -20 17 -5 30 -6 30 -1 0 5 -10 11
-22 14 -13 2 -4 4 19 3 24 -2 44 1 45 5 2 3 77 2 168 -3 152 -8 188 -9 230 -7
8 1 24 -3 34 -7 15 -6 17 -5 11 5 -6 10 -4 12 11 6 24 -10 91 -21 84 -14 -3 3
-81 33 -175 68 -303 112 -634 261 -841 379 l-72 41 -6 -24z"/>
<path d="M15525 35967 c-24 -40 -45 -97 -35 -97 4 0 13 18 20 40 10 29 16 38
24 30 8 -8 7 -13 -2 -19 -9 -5 -12 -21 -9 -42 3 -30 5 -31 11 -12 5 12 15 24
23 27 12 5 14 15 8 44 -11 60 -19 66 -40 29z"/>
<path d="M16704 35942 c3 -6 -29 -32 -72 -60 -282 -181 -643 -341 -1154 -513
-71 -24 -128 -47 -128 -51 0 -5 16 -1 36 7 41 17 94 20 94 5 0 -11 83 -14 93
-3 4 3 107 5 229 4 282 -2 288 -2 281 -14 -19 -31 379 142 575 251 l102 57 0
64 c0 36 -5 104 -11 153 -9 71 -16 91 -32 99 -12 7 -17 7 -13 1z"/>
<path d="M15505 35831 c-6 -11 9 -23 19 -14 9 9 7 23 -3 23 -6 0 -12 -4 -16
-9z"/>
<path d="M28220 35562 l-665 -257 -3 -588 -2 -587 32 13 c18 7 324 125 681
262 l647 248 0 584 c0 460 -3 583 -12 582 -7 0 -312 -116 -678 -257z"/>
<path d="M34572 35348 l3 -383 130 -27 c330 -68 874 -128 1163 -128 l62 0 0
235 c0 129 -1 235 -3 235 -1 0 -303 101 -670 225 -368 124 -673 225 -678 225
-6 0 -8 -150 -7 -382z"/>
<path d="M31115 35410 l-670 -258 -3 -442 c-2 -419 -1 -442 15 -436 10 4 95
48 188 98 273 147 605 343 1015 600 l135 85 3 307 c1 168 -1 306 -5 305 -5 0
-309 -117 -678 -259z"/>
<path d="M38900 34953 l0 -588 672 -225 c369 -124 675 -226 680 -228 4 -2 8
262 8 587 0 325 -1 591 -3 591 -2 0 -303 101 -671 225 -367 124 -672 225 -677
225 -5 0 -9 -236 -9 -587z"/>
<path d="M15778 35313 c12 -2 32 -2 45 0 12 2 2 4 -23 4 -25 0 -35 -2 -22 -4z"/>
<path d="M16050 35310 c0 -5 5 -10 10 -10 6 0 10 5 10 10 0 6 -4 10 -10 10 -5
0 -10 -4 -10 -10z"/>
<path d="M26785 35011 l-670 -259 -3 -586 c-1 -322 -1 -586 0 -586 2 0 307
117 678 259 l675 259 3 586 c1 322 -1 586 -5 585 -5 0 -309 -116 -678 -258z"/>
<path d="M36010 35027 l0 -224 143 -17 c247 -29 497 -88 724 -171 54 -20 186
-80 293 -133 107 -53 198 -99 203 -100 4 -2 6 89 5 203 l-3 207 -663 224
c-364 122 -672 226 -682 229 -19 6 -20 0 -20 -218z"/>
<path d="M29678 34858 l-678 -261 0 -448 0 -447 73 20 c382 107 763 252 1156
439 l131 62 0 449 c0 246 -1 448 -2 447 -2 0 -308 -118 -680 -261z"/>
<path d="M40350 35057 c0 -1 -1 -266 -3 -589 l-2 -587 610 -205 c336 -112 635
-207 665 -211 30 -4 63 -9 73 -11 16 -5 17 25 15 572 l-3 577 -677 228 c-373
126 -678 227 -678 226z"/>
<path d="M11036 35011 c-11 -4 -15 -10 -10 -13 5 -4 18 0 29 8 20 15 12 17
-19 5z"/>
<path d="M10966 34969 c-11 -11 -25 -18 -30 -16 -6 2 -17 -3 -24 -12 -8 -9
-11 -11 -8 -4 4 6 1 15 -5 19 -7 4 -9 3 -6 -3 9 -15 -66 -13 -75 1 -5 7 -8 3
-8 -9 0 -13 -3 -16 -8 -8 -9 14 -84 0 -119 -23 -12 -8 -37 -14 -55 -14 -19 0
-43 -6 -54 -14 -11 -8 -33 -16 -50 -19 -16 -2 -11 -2 11 0 139 13 177 20 183
31 5 6 32 16 61 22 70 13 104 13 95 -1 -3 -6 -18 -8 -33 -5 -15 4 -21 3 -14
-2 8 -5 -4 -8 -29 -9 -55 -3 -104 -23 -86 -35 8 -6 0 -7 -22 -3 -28 5 -32 4
-20 -5 13 -10 13 -11 -2 -7 -9 3 -39 -3 -67 -14 -28 -10 -67 -19 -86 -19 -29
0 -35 4 -35 21 0 23 3 22 -82 4 -53 -12 -50 -23 7 -30 70 -8 90 -13 55 -14
-20 -1 -22 -3 -10 -11 13 -8 13 -10 -2 -10 -9 0 -19 6 -21 13 -4 9 -8 8 -16
-3 -8 -11 -11 -11 -11 -2 0 9 -8 8 -32 -5 -18 -9 -50 -18 -71 -20 -39 -3 -91
-18 -159 -47 -44 -19 -51 -20 -42 -5 4 7 3 10 -2 8 -5 -3 -25 -12 -44 -21 -19
-9 -51 -21 -70 -27 -30 -9 -23 -10 45 -6 184 10 477 80 663 157 65 28 70 32
55 45 -16 12 -15 12 8 2 22 -9 36 -5 105 29 124 63 172 92 149 91 -11 0 -29
-9 -39 -20z"/>
<path d="M10180 34781 c-36 -10 -76 -23 -89 -30 -15 -9 -43 -11 -75 -8 l-51 6
43 -18 c23 -9 39 -21 35 -25 -4 -5 2 -3 15 3 12 6 22 16 22 21 0 6 12 10 27
10 38 0 133 23 133 32 0 5 12 8 28 9 15 0 36 4 47 9 38 16 -67 9 -135 -9z"/>
<path d="M37458 34571 c-1 -105 -2 -202 -2 -214 -1 -20 52 -59 349 -259 193
-129 404 -267 469 -307 107 -65 351 -194 416 -219 14 -6 49 -19 78 -31 l52
-21 0 394 0 394 -657 221 c-362 122 -668 224 -680 227 l-23 6 -2 -191z"/>
<path d="M9920 34709 c-14 -5 -47 -15 -75 -23 -49 -14 -50 -15 -14 -15 32 -1
129 33 129 44 0 6 -9 5 -40 -6z"/>
<path d="M9990 34704 c0 -8 5 -12 10 -9 6 4 8 11 5 16 -9 14 -15 11 -15 -7z"/>
<path d="M11620 34699 c-116 -11 -625 -47 -788 -55 -73 -4 -131 -8 -129 -10 1
-2 239 -6 527 -10 291 -3 526 -10 528 -15 2 -5 12 -5 22 1 14 8 20 6 23 -8 3
-9 5 11 6 46 l1 62 -52 -1 c-29 -1 -91 -5 -138 -10z"/>
<path d="M25328 34452 l-668 -257 0 -588 0 -587 33 13 c17 7 323 125 680 262
l647 248 0 584 c0 460 -3 583 -12 582 -7 0 -313 -116 -680 -257z"/>
<path d="M9780 34660 l-125 -6 143 -2 c93 -1 141 1 137 8 -3 6 -12 9 -18 8 -7
-1 -68 -5 -137 -8z"/>
<path d="M10548 34623 c23 -2 61 -2 85 0 23 2 4 4 -43 4 -47 0 -66 -2 -42 -4z"/>
<path d="M10363 34613 c9 -2 23 -2 30 0 6 3 -1 5 -18 5 -16 0 -22 -2 -12 -5z"/>
<path d="M41790 34002 l0 -569 58 -13 c111 -25 288 -99 395 -167 28 -18 881
-313 904 -313 2 0 3 265 3 589 l0 588 -672 227 c-370 124 -676 226 -680 226
-5 0 -8 -256 -8 -568z"/>
<path d="M28225 34301 l-670 -258 0 -254 0 -254 80 -3 c111 -5 483 15 640 33
191 23 528 83 618 111 16 5 17 35 17 445 0 241 -3 439 -7 438 -5 0 -309 -116
-678 -258z"/>
<path d="M38900 33886 l0 -395 68 -20 c316 -93 615 -129 982 -117 118 3 236 9
263 13 l47 6 0 226 0 226 -668 224 c-367 123 -673 226 -679 229 -10 3 -13 -79
-13 -392z"/>
<path d="M23895 33901 l-670 -258 -3 -586 c-1 -323 -1 -587 0 -587 2 0 307
117 678 259 l675 259 3 586 c1 322 -1 586 -5 585 -5 0 -309 -116 -678 -258z"/>
<path d="M43230 33501 c0 -325 2 -591 3 -591 2 0 311 -103 686 -230 l681 -229
-2 590 -3 591 -660 223 c-363 122 -670 225 -682 229 l-23 7 0 -590z"/>
<path d="M26880 33784 c-322 -123 -627 -241 -677 -260 l-93 -36 0 -92 0 -93
133 39 c349 101 747 168 1090 185 l137 6 0 239 c0 131 -1 238 -2 238 -2 -1
-266 -102 -588 -226z"/>
<path d="M40346 33587 l2 -202 43 3 c24 2 127 16 229 32 240 37 355 51 515 59
l130 6 -450 153 c-248 83 -455 152 -460 152 -6 0 -9 -79 -9 -203z"/>
<path d="M8668 28505 l2 -5236 -37 -16 c-47 -19 -67 -34 -55 -42 5 -3 34 -58
64 -121 31 -63 88 -182 127 -265 40 -82 77 -159 83 -170 17 -29 57 -112 131
-267 111 -231 218 -452 229 -472 38 -70 118 -237 118 -246 0 -5 9 -19 19 -29
21 -21 54 -152 72 -286 11 -89 8 -274 -6 -307 -6 -15 -2 -18 26 -18 114 0 219
83 219 172 0 37 -154 413 -562 1376 -66 156 -119 285 -117 287 4 3 445 -79
1614 -299 311 -59 320 -59 376 3 37 40 66 118 52 140 -6 9 -16 15 -21 14 -5
-1 -36 2 -68 7 -33 6 -81 12 -109 15 -46 5 -179 23 -215 30 -8 1 -46 6 -85 10
-38 5 -77 9 -85 10 -8 1 -40 5 -70 9 -30 4 -83 12 -118 17 -34 5 -84 12 -110
15 -108 12 -275 34 -281 38 -3 2 -40 6 -81 10 -41 3 -86 8 -100 10 -55 9 -126
20 -140 22 -104 13 -199 23 -255 28 -73 6 -275 88 -382 155 -69 43 -64 -160
-63 2508 1 1668 4 2413 11 2413 6 0 285 -133 621 -296 469 -228 615 -294 634
-290 l24 6 0 585 c0 322 -4 585 -8 585 -5 0 -290 -108 -633 -240 -343 -132
-630 -240 -636 -240 -10 0 -13 587 -13 2797 0 1538 -1 2798 -3 2799 -1 1 -40
5 -87 9 l-85 7 3 -5237z"/>
<path d="M22448 33346 l-678 -261 0 -587 0 -586 163 62 c89 34 395 152 680
261 l517 199 0 588 c0 323 -1 587 -2 587 -2 -1 -308 -119 -680 -263z"/>
<path d="M44680 33013 l0 -588 668 -224 c367 -124 673 -226 680 -229 9 -3 12
118 12 586 l0 590 -172 58 c-95 31 -397 133 -672 225 -274 93 -502 169 -507
169 -5 0 -9 -256 -9 -587z"/>
<path d="M25335 33191 l-670 -258 -3 -147 -3 -147 43 25 c348 202 844 437
1186 561 l132 48 0 89 c0 48 -3 88 -7 87 -5 0 -309 -116 -678 -258z"/>
<path d="M46120 32531 l0 -589 178 -60 c97 -33 405 -137 685 -230 l507 -171
-2 591 -3 590 -680 229 c-374 126 -681 229 -682 229 -2 0 -3 -265 -3 -589z"/>
<path d="M42552 32998 c44 -46 169 -193 278 -328 198 -245 314 -379 322 -370
2 3 2 129 0 280 l-4 276 -326 109 c-180 61 -332 111 -338 113 -7 2 24 -34 68
-80z"/>
<path d="M21005 32792 l-670 -258 -3 -588 c-2 -469 0 -587 10 -583 7 3 294
113 639 245 344 132 644 248 667 257 l42 17 0 584 c0 321 -3 584 -7 584 -5 -1
-309 -117 -678 -258z"/>
<path d="M23901 32640 c-370 -142 -675 -261 -677 -263 -2 -2 -3 -135 -2 -296
l3 -292 190 107 c105 59 372 218 595 354 223 136 442 268 488 294 l82 48 0
154 c0 85 -1 154 -2 154 -2 -1 -306 -117 -677 -260z"/>
<path d="M43230 32516 l0 -304 68 -57 c104 -88 277 -199 393 -254 208 -98 492
-174 749 -201 58 -6 117 -12 133 -14 l27 -3 0 343 0 342 -676 226 c-372 124
-680 226 -685 226 -5 0 -9 -126 -9 -304z"/>
<path d="M47570 32042 l0 -587 668 -224 c367 -124 673 -226 680 -229 9 -3 12
118 12 586 l0 590 -352 118 c-194 64 -496 166 -672 225 -175 60 -322 109 -327
109 -5 0 -9 -254 -9 -588z"/>
<path d="M19670 32280 c-311 -120 -613 -237 -672 -260 l-108 -41 0 -585 c0
-554 1 -585 18 -580 9 3 313 119 675 258 l657 253 3 588 c1 323 0 587 -3 586
-3 -1 -259 -99 -570 -219z"/>
<path d="M22445 32081 l-670 -257 -3 -213 -2 -212 32 6 c18 3 151 19 294 35
285 32 387 52 557 106 141 46 229 80 367 146 l110 51 0 298 c0 165 -3 299 -7
298 -5 0 -309 -116 -678 -258z"/>
<path d="M44680 32011 l0 -331 253 0 c402 0 762 -22 1067 -66 l45 -6 -3 139
-3 138 -667 224 c-367 122 -673 225 -679 228 -10 4 -13 -65 -13 -326z"/>
<path d="M49010 31560 c0 -324 1 -590 3 -590 2 0 310 -103 685 -230 l682 -229
-2 590 -3 591 -680 229 c-374 126 -681 229 -682 229 -2 0 -3 -265 -3 -590z"/>
<path d="M18110 31681 l-665 -257 -3 -586 -2 -587 37 13 c28 10 1239 475 1311
503 9 4 12 131 12 589 0 461 -3 584 -12 583 -7 -1 -312 -117 -678 -258z"/>
<path d="M46120 31722 l0 -128 98 -18 c348 -65 838 -223 1175 -380 l97 -45 0
124 0 123 -678 226 c-372 124 -680 226 -685 226 -4 0 -7 -58 -7 -128z"/>
<path d="M21115 31571 c-308 -119 -611 -235 -672 -259 l-113 -43 0 -50 c0 -43
2 -50 18 -45 36 11 395 77 602 111 189 31 702 105 730 105 6 0 10 72 10 200 0
110 -3 200 -7 199 -5 -1 -260 -99 -568 -218z"/>
<path d="M50460 31073 l0 -588 245 -84 245 -84 435 272 435 272 0 174 0 173
-502 168 c-277 92 -579 193 -672 225 -92 33 -172 59 -177 59 -5 0 -9 -255 -9
-587z"/>
<path d="M16675 31130 l-670 -258 -3 -587 c-2 -556 -1 -586 15 -581 10 3 315
120 678 260 l660 254 3 586 c1 322 -1 586 -5 585 -5 0 -309 -117 -678 -259z"/>
<path d="M47570 31242 l0 -128 113 -59 c369 -193 741 -439 1095 -722 l152
-122 -2 352 -3 352 -677 227 -678 227 0 -127z"/>
<path d="M19950 31124 c-146 -57 -269 -106 -275 -109 -14 -7 7 -3 275 65 129
32 247 61 261 64 23 5 27 12 31 46 3 31 0 40 -12 39 -8 -1 -134 -48 -280 -105z"/>
<path d="M51900 31049 c0 -112 2 -130 15 -125 24 9 257 158 253 162 -4 3 -258
94 -264 94 -2 0 -4 -59 -4 -131z"/>
<path d="M49010 30512 l0 -369 128 -114 c70 -63 218 -203 329 -313 l202 -198
53 32 c29 18 189 118 356 222 l302 190 0 233 0 233 -667 224 c-368 122 -676
224 -685 226 -17 3 -18 -20 -18 -366z"/>
<path d="M15232 30576 c-359 -138 -659 -256 -668 -261 -13 -9 -14 -85 -12
-592 l3 -581 610 234 c336 129 640 246 678 260 l67 26 0 584 c0 461 -3 584
-12 583 -7 -1 -307 -114 -666 -253z"/>
<path d="M18075 30404 c-220 -85 -453 -175 -517 -200 l-118 -46 0 -145 c0 -91
4 -143 10 -141 13 4 320 222 488 346 140 103 307 209 463 292 52 27 90 49 84
49 -5 0 -190 -70 -410 -155z"/>
<path d="M50460 30205 l0 -194 202 126 c113 72 195 129 187 132 -8 2 -98 32
-201 67 l-188 63 0 -194z"/>
<path d="M13785 30020 l-670 -258 -3 -587 c-2 -468 0 -586 10 -583 12 5 660
253 1143 438 l200 77 3 587 c1 322 -1 586 -5 585 -5 0 -309 -117 -678 -259z"/>
<path d="M16678 29868 l-678 -261 0 -249 c0 -136 2 -248 4 -248 2 0 73 31 158
69 381 171 732 353 1041 538 l157 95 0 159 c0 87 -1 159 -2 158 -2 0 -308
-118 -680 -261z"/>
<path d="M12328 29462 l-668 -257 0 -588 0 -587 33 13 c17 7 323 125 680 262
l647 248 0 584 c0 460 -3 583 -12 582 -7 0 -313 -116 -680 -257z"/>
<path d="M15225 29310 l-670 -258 -3 -227 -2 -227 27 6 c226 54 904 287 1233
424 l95 40 3 251 c1 138 -1 251 -5 250 -5 0 -309 -117 -678 -259z"/>
<path d="M10895 28911 l-670 -258 -3 -587 c-1 -322 -1 -586 0 -586 2 0 307
117 678 259 l675 259 3 586 c1 322 -1 586 -5 585 -5 0 -309 -116 -678 -258z"/>
<path d="M14395 28991 c-38 -15 -343 -133 -677 -261 l-608 -233 0 -117 0 -117
153 37 c83 21 296 68 472 105 176 36 413 89 528 117 l207 50 0 224 c0 123 -1
224 -2 223 -2 0 -34 -13 -73 -28z"/>
<path d="M12335 28201 l-670 -258 -3 -137 -3 -137 133 70 c316 166 681 320
1018 431 l205 68 3 111 c1 61 -1 111 -5 110 -4 0 -309 -116 -678 -258z"/>
<path d="M10902 27650 c-371 -142 -676 -261 -679 -264 -3 -3 -3 -11 0 -18 7
-19 515 -260 530 -251 7 4 62 44 122 88 115 85 271 181 539 330 87 49 160 94
162 100 3 6 3 70 2 142 l-3 131 -673 -258z"/>
<path d="M43484 25654 c-18 -14 -18 -15 4 -4 12 6 22 13 22 15 0 8 -5 6 -26
-11z"/>
<path d="M43404 25604 c-18 -14 -18 -15 4 -4 12 6 22 13 22 15 0 8 -5 6 -26
-11z"/>
<path d="M43343 25569 c-35 -22 -46 -37 -15 -20 22 13 58 40 52 41 -3 0 -20
-10 -37 -21z"/>
<path d="M43265 25520 c-16 -11 -25 -20 -20 -20 10 0 64 39 55 40 -3 0 -18 -9
-35 -20z"/>
<path d="M43048 25387 c-53 -34 -95 -63 -93 -65 5 -5 183 106 191 119 8 13 7
13 -98 -54z"/>
<path d="M26178 24233 c7 -3 16 -2 19 1 4 3 -2 6 -13 5 -11 0 -14 -3 -6 -6z"/>
<path d="M26278 24213 c7 -3 16 -2 19 1 4 3 -2 6 -13 5 -11 0 -14 -3 -6 -6z"/>
<path d="M26328 24203 c7 -3 16 -2 19 1 4 3 -2 6 -13 5 -11 0 -14 -3 -6 -6z"/>
<path d="M26368 24193 c7 -3 16 -2 19 1 4 3 -2 6 -13 5 -11 0 -14 -3 -6 -6z"/>
<path d="M26440 24180 c34 -11 60 -11 35 0 -11 5 -29 8 -40 8 -16 0 -15 -2 5
-8z"/>
<path d="M26513 24163 c9 -2 23 -2 30 0 6 3 -1 5 -18 5 -16 0 -22 -2 -12 -5z"/>
<path d="M26560 24150 c0 -13 11 -13 30 0 12 8 11 10 -7 10 -13 0 -23 -4 -23
-10z"/>
<path d="M26618 24143 c6 -2 18 -2 25 0 6 3 1 5 -13 5 -14 0 -19 -2 -12 -5z"/>
<path d="M26575 24130 c-3 -5 -2 -10 4 -10 5 0 13 5 16 10 3 6 2 10 -4 10 -5
0 -13 -4 -16 -10z"/>
<path d="M26660 24136 c0 -2 11 -6 25 -8 13 -3 22 -1 19 3 -5 9 -44 13 -44 5z"/>
<path d="M26739 24111 c13 -13 20 -26 16 -29 -4 -4 -12 1 -19 10 -19 26 -24
14 -18 -42 l5 -50 -36 0 c-20 0 -39 -4 -42 -10 -3 -5 -14 -9 -23 -9 -15 1 -15
2 1 6 11 3 17 14 17 34 0 30 -17 40 -26 14 -3 -8 -24 -20 -46 -26 -37 -10 -39
-11 -24 -28 27 -29 20 -58 -13 -63 -17 -2 -29 -2 -28 1 1 3 -6 17 -15 31 l-18
24 -20 -22 c-12 -12 -27 -22 -35 -22 -11 0 -15 -12 -15 -45 0 -33 -4 -45 -15
-45 -8 0 -15 -6 -15 -12 0 -8 -3 -9 -8 -3 -10 14 -42 18 -42 5 0 -16 -47 -12
-54 5 -3 8 -16 15 -29 15 -21 0 -23 -4 -19 -32 3 -18 11 -39 19 -46 8 -8 11
-17 8 -21 -4 -3 -12 1 -18 10 -14 19 -82 45 -71 27 5 -8 -3 -9 -27 -5 -49 9
-16 -8 61 -32 62 -19 62 -19 117 1 39 15 50 24 41 31 -9 6 -8 7 5 3 15 -5 403
145 582 224 22 10 57 23 78 31 44 15 48 29 10 29 -22 0 -25 -2 -13 -10 9 -6
10 -10 3 -10 -7 0 -16 6 -20 13 -4 7 -57 23 -118 36 -60 12 -121 25 -134 28
l-24 6 22 -22z m66 -15 c7 3 16 1 19 -5 4 -6 -4 -9 -20 -8 -15 1 -29 9 -32 17
-3 12 -2 12 8 3 7 -6 18 -9 25 -7z m160 -57 c-4 -5 -13 -9 -21 -9 -12 0 -12 2
-2 14 14 15 32 11 23 -5z m-118 -45 c-3 -3 -12 -4 -19 -1 -8 3 -5 6 6 6 11 1
17 -2 13 -5z m-370 -90 c-3 -3 -12 -4 -19 -1 -8 3 -5 6 6 6 11 1 17 -2 13 -5z"/>
<path d="M26480 24090 c0 -5 6 -10 14 -10 8 0 18 5 21 10 3 6 -3 10 -14 10
-12 0 -21 -4 -21 -10z"/>
<path d="M26400 24030 c0 -16 5 -30 10 -30 6 0 10 14 10 30 0 17 -4 30 -10 30
-5 0 -10 -13 -10 -30z"/>
<path d="M27180 24018 c-38 -17 -119 -50 -310 -128 -96 -40 -238 -98 -315
-130 -77 -31 -149 -61 -160 -65 -15 -5 -1 -14 65 -37 211 -74 345 -121 480
-167 80 -27 274 -95 432 -150 l288 -100 142 59 c870 356 938 385 938 391 0 3
-24 11 -52 17 -29 6 -190 43 -358 81 -299 68 -1106 242 -1119 240 -3 0 -17 -5
-31 -11z"/>
<path d="M26320 24010 c0 -5 6 -10 14 -10 8 0 18 5 21 10 3 6 -3 10 -14 10
-12 0 -21 -4 -21 -10z"/>
<path d="M26168 23933 c7 -3 16 -2 19 1 4 3 -2 6 -13 5 -11 0 -14 -3 -6 -6z"/>
<path d="M26215 23920 c-28 -7 -28 -8 -5 -9 14 0 32 4 40 9 17 11 8 11 -35 0z"/>
<path d="M26300 23870 c0 -5 5 -10 10 -10 6 0 10 5 10 10 0 6 -4 10 -10 10 -5
0 -10 -4 -10 -10z"/>
<path d="M17460 23845 c14 -8 30 -14 35 -14 6 0 -1 6 -15 14 -14 8 -29 14 -35
14 -5 0 1 -6 15 -14z"/>
<path d="M26077 23846 c-4 -10 0 -12 14 -9 10 3 16 9 13 14 -8 13 -21 11 -27
-5z"/>
<path d="M25730 23800 c0 -5 7 -7 15 -4 8 4 15 8 15 10 0 2 -7 4 -15 4 -8 0
-15 -4 -15 -10z"/>
<path d="M25792 23781 c-11 -7 -10 -10 3 -15 9 -3 24 -1 33 4 14 9 12 10 -7 4
-16 -4 -21 -3 -17 5 8 13 6 14 -12 2z"/>
<path d="M25865 23761 c4 -8 2 -17 -6 -22 -9 -6 -10 -9 -2 -9 19 0 27 21 13
33 -10 9 -11 9 -5 -2z"/>
<path d="M25920 23746 c0 -2 7 -7 16 -10 8 -3 12 -2 9 4 -6 10 -25 14 -25 6z"/>
<path d="M17700 23735 c0 -7 121 -67 126 -63 2 2 -26 18 -61 36 -36 17 -65 30
-65 27z"/>
<path d="M26034 23701 c5 -7 -3 -9 -21 -7 -15 2 -23 1 -16 -1 20 -7 -27 -45
-56 -46 -14 0 -20 -2 -13 -4 6 -3 12 -9 12 -14 0 -6 -4 -7 -10 -4 -5 3 -10 -1
-10 -9 0 -12 -10 -16 -35 -16 -19 0 -35 -4 -35 -10 0 -5 -7 -6 -17 -3 -12 5
-14 3 -8 -7 5 -9 4 -11 -3 -6 -7 4 -20 2 -29 -3 -10 -6 -14 -11 -9 -11 6 0 1
-7 -10 -15 -18 -14 -18 -15 6 -6 14 5 88 35 165 66 77 31 149 60 160 65 19 8
19 8 -5 18 -54 20 -73 24 -66 13z m36 -18 c-8 -3 -27 -12 -42 -20 -16 -7 -28
-10 -28 -5 0 9 47 30 70 30 13 0 13 0 0 -5z"/>
<path d="M25760 23690 c0 -5 24 -10 53 -10 37 0 48 3 37 10 -20 13 -90 13 -90
0z"/>
<path d="M25940 23675 c-14 -8 -20 -14 -14 -15 5 0 19 7 30 15 24 18 16 19
-16 0z"/>
<path d="M17842 23665 c12 -13 952 -465 956 -460 3 3 -55 34 -129 69 -74 35
-289 139 -478 230 -324 156 -362 174 -349 161z"/>
<path d="M28868 23655 c-3 -3 -97 -43 -209 -89 -112 -45 -356 -145 -543 -222
l-338 -139 33 -13 c19 -8 104 -39 189 -70 179 -64 174 -64 435 -34 196 23 494
46 815 62 535 28 721 71 666 156 -44 66 -412 198 -893 318 -158 40 -148 38
-155 31z"/>
<path d="M26125 23583 c-71 -30 -156 -64 -188 -77 -31 -12 -54 -26 -50 -31 5
-4 3 -5 -4 -2 -14 9 -45 -2 -38 -13 3 -5 0 -12 -6 -16 -8 -4 -9 -3 -5 4 4 7 3
12 -2 12 -18 0 -112 -43 -108 -49 2 -3 -6 -7 -19 -7 -37 -3 -184 -67 -185 -81
0 -7 -8 -12 -17 -11 -35 3 -54 -2 -48 -12 4 -6 10 -8 14 -6 4 3 12 1 19 -3 9
-5 5 -16 -15 -37 -24 -25 -28 -27 -31 -11 -4 21 -43 20 -50 -2 -3 -10 0 -12
12 -8 11 4 15 3 10 -4 -3 -6 -17 -8 -30 -5 -17 5 -24 2 -24 -8 0 -8 5 -16 12
-18 7 -3 8 -9 3 -18 -6 -10 -11 -8 -19 11 -10 23 -10 23 -14 -10 -2 -21 2 -37
9 -42 8 -4 10 -12 5 -16 -5 -4 -11 -2 -13 5 -11 30 -83 4 -83 -30 0 -19 -21
-38 -42 -38 -10 0 -18 -4 -18 -10 0 -5 7 -10 15 -10 8 0 15 -5 15 -10 0 -7 -6
-7 -19 0 -13 6 -22 6 -26 1 -3 -6 23 -19 57 -30 35 -11 135 -45 223 -76 156
-56 547 -191 694 -242 l74 -25 101 40 c56 22 146 59 201 82 55 23 192 79 305
125 369 151 715 294 709 295 -3 0 -205 68 -450 151 -244 83 -534 181 -644 218
l-200 68 -130 -54z m-235 -127 c0 -2 -7 -7 -16 -10 -8 -3 -12 -2 -9 4 6 10 25
14 25 6z m-213 -92 c-3 -3 -12 -4 -19 -1 -8 3 -5 6 6 6 11 1 17 -2 13 -5z
m-123 -35 c-5 -9 2 -10 22 -6 l29 7 -32 -17 c-36 -18 -53 -12 -33 12 15 18 24
20 14 4z m-24 -46 c0 5 5 5 11 1 8 -4 8 -9 -1 -18 -8 -8 -13 -7 -20 4 -5 8
-10 20 -10 25 0 6 5 3 10 -5 5 -8 10 -11 10 -7z m-206 -178 c-4 -9 -14 -20
-23 -24 -13 -8 -17 -5 -19 15 -1 19 3 24 23 24 18 0 23 -4 19 -15z m-14 -95
c8 -5 11 -10 5 -10 -5 0 -17 5 -25 10 -8 5 -10 10 -5 10 6 0 17 -5 25 -10z"/>
<path d="M25740 23610 c0 -5 -6 -10 -14 -10 -7 0 -31 -7 -51 -16 -29 -12 -35
-18 -24 -25 20 -13 29 -11 29 5 0 8 7 17 16 20 26 10 64 7 64 -6 0 -6 2 -9 5
-7 7 8 -6 49 -16 49 -5 0 -9 -4 -9 -10z"/>
<path d="M25606 23531 c-3 -5 3 -11 15 -14 16 -4 18 -3 8 9 -13 16 -16 17 -23
5z"/>
<path d="M25490 23470 c-28 -28 -18 -38 11 -11 12 11 20 23 17 27 -4 3 -16 -4
-28 -16z"/>
<path d="M25545 23479 c-11 -17 1 -21 15 -4 8 9 8 15 2 15 -6 0 -14 -5 -17
-11z"/>
<path d="M25525 23440 c-3 -6 1 -7 9 -4 18 7 21 14 7 14 -6 0 -13 -4 -16 -10z"/>
<path d="M25410 23406 c0 -2 7 -7 16 -10 8 -3 12 -2 9 4 -6 10 -25 14 -25 6z"/>
<path d="M25190 23352 c0 -13 39 -46 46 -39 3 3 -4 10 -15 17 -12 6 -19 15
-16 21 4 5 1 9 -4 9 -6 0 -11 -4 -11 -8z"/>
<path d="M25264 23338 c9 -5 23 -5 32 0 12 6 7 9 -16 9 -23 0 -28 -3 -16 -9z"/>
<path d="M25164 23294 c-18 -14 -18 -14 6 -3 31 14 36 19 24 19 -6 0 -19 -7
-30 -16z"/>
<path d="M25120 23280 c0 -5 5 -10 11 -10 5 0 7 5 4 10 -3 6 -8 10 -11 10 -2
0 -4 -4 -4 -10z"/>
<path d="M25060 23265 c0 -8 29 -12 39 -5 9 5 4 8 -13 8 -14 0 -26 -2 -26 -3z"/>
<path d="M25047 23249 c7 -7 15 -10 18 -7 3 3 -2 9 -12 12 -14 6 -15 5 -6 -5z"/>
<path d="M25303 23235 c0 -7 6 -11 14 -8 7 3 13 6 13 8 0 2 -6 5 -13 8 -8 3
-14 -1 -14 -8z"/>
<path d="M24985 23220 c-3 -6 1 -7 9 -4 18 7 21 14 7 14 -6 0 -13 -4 -16 -10z"/>
<path d="M25207 23208 c-19 -7 -26 -15 -23 -25 5 -12 1 -14 -21 -8 -19 4 -25
3 -18 -3 18 -18 75 -19 75 -1 0 5 -4 7 -10 4 -5 -3 -10 1 -10 9 0 15 14 20 47
19 7 -1 10 3 7 8 -6 11 -11 10 -47 -3z"/>
<path d="M18890 23160 c0 -10 33 -30 49 -30 22 0 10 18 -19 29 -17 5 -30 6
-30 1z"/>
<path d="M25117 23159 c7 -7 15 -10 18 -7 3 3 -2 9 -12 12 -14 6 -15 5 -6 -5z"/>
<path d="M25070 23150 c-12 -7 -10 -9 8 -7 12 0 22 5 22 9 0 11 -12 10 -30 -2z"/>
<path d="M27550 23113 c-58 -24 -197 -82 -310 -128 -113 -46 -239 -97 -280
-115 -41 -17 -193 -79 -337 -138 -145 -58 -263 -110 -263 -114 0 -4 15 -11 33
-17 17 -5 91 -30 162 -55 723 -252 1137 -394 1160 -397 11 -1 31 3 45 9 86 37
317 132 447 184 134 54 174 78 128 78 -32 0 -339 95 -455 141 -272 108 -380
213 -311 301 41 52 196 115 380 154 l83 18 -183 62 c-101 35 -186 63 -189 62
-3 0 -52 -20 -110 -45z"/>
<path d="M24985 23116 c-25 -10 -26 -13 -12 -19 12 -5 16 -3 11 5 -5 7 2 9 22
5 16 -3 23 -4 16 -1 -6 3 -10 10 -6 15 6 11 6 11 -31 -5z"/>
<path d="M25073 23102 c-8 -5 -2 -13 18 -24 16 -10 29 -12 29 -7 0 6 -9 13
-21 16 -16 4 -17 8 -7 14 7 5 9 9 3 9 -5 0 -15 -4 -22 -8z"/>
<path d="M8382 23034 c-92 -67 -250 -157 -262 -149 -6 4 -10 2 -10 -2 0 -5
-10 -9 -22 -9 -13 0 -48 -7 -78 -16 -30 -10 -84 -24 -120 -33 -36 -9 -103 -27
-150 -41 -47 -14 -101 -29 -120 -34 -19 -5 -69 -19 -110 -30 -41 -11 -91 -24
-110 -29 -19 -5 -75 -21 -125 -35 -157 -44 -406 -112 -535 -146 -69 -18 -150
-40 -180 -50 -30 -9 -78 -23 -107 -29 -49 -12 -52 -14 -48 -42 5 -39 40 -94
76 -120 66 -47 33 -56 1078 292 544 182 971 329 971 336 0 6 -13 41 -30 78
-16 37 -30 78 -30 91 0 13 -3 24 -7 23 -5 0 -41 -25 -81 -55z"/>
<path d="M25015 23080 c11 -5 29 -9 40 -9 l20 0 -20 9 c-11 5 -29 9 -40 9
l-20 0 20 -9z"/>
<path d="M19160 23026 c0 -2 7 -7 16 -10 8 -3 12 -2 9 4 -6 10 -25 14 -25 6z"/>
<path d="M24923 23013 c4 -3 5 -9 1 -14 -7 -12 7 -11 26 1 9 6 10 10 3 10 -6
0 -17 2 -25 3 -7 2 -10 2 -5 0z"/>
<path d="M19230 22990 c8 -5 20 -10 25 -10 6 0 3 5 -5 10 -8 5 -19 10 -25 10
-5 0 -3 -5 5 -10z"/>
<path d="M24770 22985 c-23 -13 -21 -16 12 -19 6 -1 12 7 14 17 1 9 2 17 1 17
-1 -1 -13 -7 -27 -15z"/>
<path d="M24925 22980 c-13 -6 -15 -9 -5 -9 8 0 22 4 30 9 18 12 2 12 -25 0z"/>
<path d="M25028 22973 c7 -3 16 -2 19 1 4 3 -2 6 -13 5 -11 0 -14 -3 -6 -6z"/>
<path d="M25069 22943 c-12 -15 -12 -16 5 -10 14 5 17 3 13 -8 -10 -23 12 -29
35 -8 12 10 18 13 15 6 -4 -6 -1 -14 5 -17 7 -3 4 -4 -7 -3 -12 1 -19 -3 -17
-10 1 -7 0 -13 -3 -13 -11 0 -61 26 -67 35 -5 7 -8 6 -8 -1 0 -6 9 -21 20 -34
13 -15 17 -27 11 -33 -12 -12 -31 0 -31 19 0 8 -4 14 -10 14 -15 0 -12 -58 3
-63 7 -2 8 -8 3 -13 -5 -5 -11 -4 -13 4 -6 16 -51 15 -69 -2 -17 -18 -18 -63
-1 -69 7 -2 8 -8 3 -13 -5 -5 -11 -4 -13 4 -6 16 -51 15 -69 -2 -8 -8 -14 -24
-14 -34 0 -31 -11 -52 -26 -52 -8 0 -14 -4 -14 -10 0 -5 5 -10 11 -10 5 0 7
-5 4 -10 -4 -7 -14 -2 -26 12 l-20 22 7 -44 7 -45 -22 19 c-17 15 -21 16 -21
4 0 -8 9 -23 20 -33 29 -26 27 -65 -4 -65 -13 0 -29 6 -35 14 -11 13 -15 12
-30 -2 -10 -9 -18 -19 -17 -22 2 -16 -28 -51 -40 -46 -8 3 -14 -1 -14 -9 0 -8
-4 -15 -10 -15 -5 0 -10 -13 -10 -30 0 -27 -3 -30 -30 -30 -30 0 -41 -14 -17
-23 7 -3 5 -6 -5 -6 -10 -1 -18 -7 -18 -15 0 -8 -6 -16 -12 -19 -7 -2 -5 -3 5
-2 9 2 17 0 17 -5 0 -4 8 -10 18 -13 9 -3 95 -33 190 -66 l173 -61 207 84
c114 46 275 112 357 146 83 33 252 102 377 153 126 51 228 95 228 99 0 3 -42
20 -92 36 -277 90 -875 293 -890 302 -25 14 -44 12 -59 -7z m-85 -159 c8 -21
8 -21 -9 -28 -11 -4 -15 1 -15 19 0 28 15 33 24 9z m-60 -79 c-4 -9 -15 -20
-25 -26 -16 -8 -19 -6 -19 16 0 20 5 25 25 25 18 0 23 -4 19 -15z m-264 -345
c0 -33 -3 -40 -20 -40 -11 0 -20 5 -20 10 0 6 5 10 10 10 6 0 10 14 10 30 0
17 5 30 10 30 6 0 10 -18 10 -40z m-31 -59 c19 -12 -4 -24 -30 -16 -17 6 -19
9 -8 16 17 11 21 11 38 0z m6 -41 c-3 -5 -12 -10 -18 -10 -7 0 -6 4 3 10 19
12 23 12 15 0z"/>
<path d="M19470 22876 c0 -2 7 -7 16 -10 8 -3 12 -2 9 4 -6 10 -25 14 -25 6z"/>
<path d="M24910 22869 c0 -5 5 -7 10 -4 6 3 10 8 10 11 0 2 -4 4 -10 4 -5 0
-10 -5 -10 -11z"/>
<path d="M24845 22830 c-3 -5 -1 -10 4 -10 6 0 11 -4 11 -10 0 -5 -5 -10 -10
-10 -16 0 -53 -37 -49 -49 2 -5 21 6 42 25 33 31 36 37 23 49 -9 10 -17 11
-21 5z"/>
<path d="M24701 22681 c-7 -5 -10 -14 -6 -20 4 -7 1 -18 -5 -26 -10 -12 -9
-15 9 -15 17 0 21 6 21 35 0 39 0 38 -19 26z"/>
<path d="M24645 22585 c-5 -11 -17 -32 -27 -47 -23 -34 -23 -41 2 -26 11 7 20
20 20 30 0 9 5 18 11 20 6 2 9 13 7 23 -5 20 -5 20 -13 0z"/>
<path d="M26035 22490 c-104 -43 -266 -109 -360 -148 -496 -204 -591 -244
-598 -251 -4 -4 20 -17 55 -29 35 -11 135 -46 223 -77 88 -31 198 -69 245 -85
47 -16 164 -56 260 -90 96 -34 222 -78 280 -98 58 -19 145 -50 195 -67 l90
-32 145 60 c80 32 195 79 255 104 61 25 191 78 290 118 99 40 220 89 269 109
48 20 93 33 99 29 5 -3 7 -2 4 4 -3 5 23 20 59 33 66 25 76 34 47 43 -10 3
-191 64 -403 137 -675 230 -943 320 -954 319 -6 0 -96 -35 -201 -79z"/>
<path d="M24540 22410 c0 -5 5 -10 10 -10 6 0 10 5 10 10 0 6 -4 10 -10 10 -5
0 -10 -4 -10 -10z"/>
<path d="M28447 22369 c-10 -6 -93 -41 -185 -78 -92 -38 -227 -93 -299 -122
-73 -30 -133 -57 -133 -60 0 -3 21 -13 48 -22 26 -8 153 -52 282 -97 129 -45
243 -84 253 -87 15 -5 14 -8 -9 -19 -35 -18 -37 -18 -31 6 3 11 1 20 -4 20 -5
0 -10 -4 -10 -10 -1 -5 -2 -15 -3 -22 0 -6 -7 -13 -15 -16 -8 -3 -11 0 -8 5 3
5 -10 9 -30 9 -22 0 -40 7 -48 17 -6 9 -15 14 -18 11 -7 -8 -171 46 -175 58
-2 4 -7 6 -12 3 -4 -3 -79 20 -166 50 -128 44 -164 53 -184 46 -14 -5 -108
-44 -210 -86 -102 -42 -243 -101 -315 -130 -71 -29 -224 -92 -340 -140 -115
-47 -229 -94 -252 -103 -24 -9 -43 -19 -43 -23 0 -4 53 -25 118 -47 225 -77
347 -120 377 -133 37 -15 30 -13 87 -28 27 -8 45 -18 42 -23 -4 -6 1 -8 12 -4
11 3 26 1 34 -5 13 -10 13 -10 0 -6 -9 3 -29 -1 -45 -9 l-30 -13 30 6 c28 6
29 5 15 -12 -14 -17 -13 -18 3 -12 9 3 17 2 17 -3 0 -6 7 -10 16 -10 8 0 12 5
9 10 -3 6 1 10 11 10 13 0 14 -3 4 -15 -10 -12 -10 -15 0 -15 8 0 11 -2 8 -5
-4 -4 -92 24 -188 61 -12 5 -11 8 5 14 13 6 15 9 5 9 -13 1 -13 3 0 12 12 9
12 10 -3 5 -10 -3 -23 -6 -28 -6 -4 0 -6 -6 -3 -14 4 -11 -9 -9 -60 7 -35 12
-62 26 -59 31 3 5 1 6 -5 2 -15 -9 -63 4 -56 15 3 5 -1 7 -8 4 -7 -3 -105 26
-216 63 l-204 69 -116 -47 c-113 -46 -574 -237 -945 -390 -97 -41 -174 -77
-170 -81 5 -4 67 -27 138 -52 72 -25 157 -55 190 -68 l60 -22 290 12 c797 32
1609 41 2010 22 368 -18 584 -31 675 -41 715 -81 1069 -144 1455 -256 469
-136 735 -300 735 -454 0 -133 -229 -255 -615 -328 -191 -37 -323 -55 -590
-82 -215 -22 -379 -52 -429 -77 -100 -50 -100 -105 0 -173 161 -111 520 -251
1211 -470 191 -61 425 -135 518 -164 423 -135 876 -284 1057 -348 l198 -70 67
28 c88 36 92 40 52 52 -19 6 -106 36 -194 67 -88 31 -168 59 -177 62 -10 3
-16 9 -13 13 2 4 -6 5 -19 3 -12 -3 -29 1 -37 9 -8 7 -18 13 -24 13 -27 1 -75
18 -75 26 0 6 -4 8 -9 5 -8 -5 -146 39 -161 51 -2 2 2 8 10 13 20 13 4 13 -19
1 -13 -7 -18 -6 -18 5 0 7 4 14 9 14 14 0 9 18 -8 24 -9 4 -23 1 -30 -5 -10
-8 -14 -8 -14 0 0 6 6 11 13 11 6 1 1 7 -13 16 l-25 15 25 -7 c68 -19 179 -61
174 -67 -3 -3 3 -3 15 0 12 3 21 1 21 -5 0 -5 6 -10 13 -9 32 1 48 -4 42 -13
-3 -5 0 -8 7 -5 16 6 95 -20 82 -27 -5 -3 -3 -3 5 -1 8 2 136 -38 286 -89
l272 -92 114 46 c63 26 213 88 334 138 121 51 283 118 360 149 349 144 425
176 425 181 0 3 -80 33 -177 67 -98 34 -322 112 -498 173 -176 61 -383 134
-460 160 l-141 49 -309 -126 c-171 -69 -320 -126 -332 -127 -11 -1 -19 -4 -17
-7 8 -13 -29 -20 -40 -8 -8 9 -6 10 9 5 17 -5 17 -3 -4 14 -13 11 -26 18 -30
15 -3 -3 -1 -9 4 -13 21 -15 9 -38 -29 -54 -46 -21 -43 -21 -43 -4 0 9 7 12
16 9 12 -5 13 -3 5 7 -13 13 -46 16 -84 6 -14 -4 13 9 59 29 46 20 90 34 98
31 8 -3 11 -1 8 4 -10 16 26 25 37 9 8 -11 9 -11 5 2 -4 13 11 23 66 44 40 16
97 39 127 53 30 13 116 49 190 79 116 47 169 73 149 73 -3 0 -77 25 -165 56
-87 30 -211 73 -273 95 -63 22 -126 46 -139 55 -14 9 -22 12 -19 7 3 -5 -21 0
-53 10 -35 12 -57 24 -53 30 4 6 0 8 -10 4 -9 -3 -51 7 -94 23 -43 17 -67 28
-53 26 14 -1 36 -8 50 -13 14 -6 30 -8 35 -5 6 4 19 8 29 9 33 5 29 10 -14 17
-22 3 -40 11 -40 16 0 12 13 13 24 3 3 -4 14 -8 24 -10 31 -5 187 -61 172 -62
-13 -1 -13 -2 0 -11 9 -5 17 -5 20 0 4 6 150 -39 331 -100 178 -60 330 -110
338 -110 7 0 171 66 365 146 193 80 443 184 556 231 113 47 215 91 228 97 20
10 -7 22 -230 100 -139 48 -296 103 -348 121 -52 18 -240 84 -418 145 l-322
111 -223 -89 c-122 -49 -268 -108 -325 -131 -56 -23 -107 -39 -114 -35 -6 4
-8 3 -5 -3 4 -6 0 -14 -9 -17 -23 -9 -27 -8 -20 9 5 15 -14 17 -25 2 -3 -4
-19 -3 -34 3 -23 9 -26 13 -15 20 8 5 26 7 40 4 17 -4 21 -3 12 4 -9 6 -1 13
29 25 23 9 46 14 50 11 5 -3 9 -1 9 4 0 10 18 18 334 150 104 43 185 82 180
84 -5 3 -31 13 -59 21 -27 9 -122 41 -210 72 -88 31 -247 87 -354 124 -111 39
-189 71 -180 74 8 4 5 5 -6 2 -22 -5 -90 15 -92 28 -4 21 -12 30 -12 15 -1
-20 -9 -22 -31 -8 -12 8 -12 10 5 10 17 0 17 2 5 10 -8 5 -24 10 -35 10 -17 0
-18 -2 -5 -11 12 -9 12 -10 -3 -5 -10 3 -24 6 -29 6 -12 0 -1 15 10 15 4 0 12
4 19 8 6 4 23 3 37 -3 17 -6 26 -6 26 0 0 6 -8 10 -17 10 -15 1 -66 30 -52 30
5 0 542 -182 935 -316 l160 -55 235 97 c129 53 304 126 389 161 85 36 205 85
265 110 61 25 124 51 140 58 17 8 68 29 115 49 47 19 103 42 125 52 l40 17
-95 32 c-312 108 -438 151 -635 220 -121 42 -324 112 -451 156 l-230 79 -310
-126 c-507 -206 -653 -264 -663 -264 -5 0 -12 6 -15 13 -3 6 -4 4 -3 -6 3 -25
-128 -80 -155 -66 -13 7 -16 6 -12 -4 3 -10 -22 -25 -87 -51 -50 -20 -94 -34
-97 -32 -5 5 42 26 58 26 5 0 12 5 16 12 5 8 2 9 -9 5 -10 -4 -16 -2 -14 5 1
7 -7 13 -18 15 -16 3 -17 2 -5 -6 18 -13 1 -15 -18 -2 -9 5 2 13 35 26 26 10
66 26 88 35 52 23 325 137 390 162 28 11 68 28 90 38 22 10 155 65 295 123
140 58 270 112 288 120 l34 14 -129 46 c-70 25 -213 75 -318 111 -495 169
-431 151 -640 170 -104 9 -256 24 -336 32 l-145 16 -200 -80 c-109 -44 -255
-103 -324 -131 -110 -45 -126 -49 -139 -36 -8 8 -12 17 -9 20 3 3 14 -2 24
-12 16 -16 17 -16 12 -1 -8 20 11 29 46 22 13 -2 27 0 31 6 3 6 -1 7 -9 4 -9
-3 -16 -1 -16 4 0 6 8 13 18 15 16 4 16 5 0 6 -10 0 -18 5 -18 9 0 10 142 71
172 75 13 1 28 7 33 13 6 6 58 31 117 54 60 24 107 45 105 47 -2 1 -75 12
-163 23 -522 67 -1030 153 -1419 241 -146 33 -143 32 -168 18z m1309 -489 c0
-13 -4 -16 -10 -10 -12 12 -29 13 -22 1 8 -12 -20 -22 -39 -15 -18 7 -20 -17
-3 -34 14 -14 15 -12 -37 -36 -36 -16 -40 -16 -51 -2 -6 9 -18 15 -25 13 -8
-2 -10 -2 -5 1 4 2 3 8 -3 12 -9 5 149 79 189 89 3 0 6 -8 6 -19z m-1241 -16
l30 -13 -35 6 c-19 3 -44 13 -55 20 -19 14 -19 15 5 8 14 -4 39 -13 55 -21z
m-80 6 c3 -6 -1 -7 -9 -4 -18 7 -21 14 -7 14 6 0 13 -4 16 -10z m-15 -14 c0
-2 -7 -7 -16 -10 -8 -3 -12 -2 -9 4 6 10 25 14 25 6z m170 -31 c-14 -8 -20
-15 -15 -15 6 -1 0 -5 -12 -10 -15 -6 -35 -4 -60 5 -21 7 -33 14 -26 14 6 1
24 -4 40 -10 21 -8 30 -7 38 4 10 14 32 25 50 26 6 0 -1 -6 -15 -14z m121 -33
c-7 -2 -18 1 -23 6 -8 8 -4 9 13 5 13 -4 18 -8 10 -11z m821 11 c-6 -2 -10 -9
-6 -14 3 -5 0 -9 -5 -9 -6 0 -11 -4 -11 -9 0 -6 12 -6 31 1 22 7 34 7 41 0 8
-8 4 -9 -13 -6 -19 5 -21 4 -9 -5 8 -6 12 -11 8 -11 -3 0 -15 -3 -25 -6 -15
-5 -16 -4 -3 6 13 9 12 11 -5 7 -11 -2 -19 -8 -18 -15 2 -7 -4 -9 -14 -5 -10
4 -12 8 -6 10 22 8 2 34 -21 28 -11 -3 -5 3 14 14 19 11 40 20 45 20 6 0 4 -3
-3 -6z m-94 -58 c0 -17 -6 -25 -17 -24 -11 0 -12 2 -3 6 10 4 9 9 -5 20 -17
13 -17 14 0 9 9 -3 17 -1 17 4 0 6 2 10 4 10 2 0 4 -11 4 -25z m57 -23 c-3 -3
-11 0 -18 7 -9 10 -8 11 6 5 10 -3 15 -9 12 -12z m-2196 -414 c13 -4 13 -5 0
-10 -7 -3 -23 4 -34 15 l-20 20 20 -10 c11 -6 27 -12 34 -15z m3381 -133 c0
-3 -12 -10 -26 -15 -14 -6 -22 -14 -19 -20 3 -6 -1 -7 -10 -4 -19 8 -18 8 20
28 33 18 35 18 35 11z m-99 -23 c-7 -2 -18 1 -23 6 -8 8 -4 9 13 5 13 -4 18
-8 10 -11z m134 0 c-3 -3 -11 0 -18 7 -9 10 -8 11 6 5 10 -3 15 -9 12 -12z
m-75 -52 c-11 -7 -4 -13 30 -29 51 -22 50 -27 -1 -9 -55 19 -73 48 -30 48 14
0 14 -2 1 -10z m93 -7 c-7 -2 -19 -2 -25 0 -7 3 -2 5 12 5 14 0 19 -2 13 -5z
m102 -23 c22 -10 62 -23 88 -30 61 -16 90 -61 32 -50 -5 1 -5 -4 2 -11 10 -10
15 -10 27 0 9 7 24 10 36 6 21 -7 21 -7 -4 -20 -21 -11 -33 -11 -76 3 -27 9
-50 20 -50 24 0 5 -6 6 -12 2 -10 -5 -10 -4 -1 6 9 10 15 10 28 -4 9 -9 22
-16 28 -16 23 1 -38 40 -62 40 -17 0 -22 4 -17 16 4 12 2 15 -9 10 -8 -3 -14
0 -12 7 1 7 -6 11 -15 11 -10 -1 -18 2 -18 6 0 5 -9 6 -20 3 -11 -3 -17 -10
-13 -16 3 -6 1 -7 -6 -3 -9 6 -9 11 -1 21 8 10 7 15 -2 19 -7 3 -2 3 12 0 14
-3 43 -14 65 -24z m-108 4 c-3 -3 -12 -4 -19 -1 -8 3 -5 6 6 6 11 1 17 -2 13
-5z m40 -40 c-3 -3 -12 -4 -19 -1 -8 3 -5 6 6 6 11 1 17 -2 13 -5z m63 -14
c24 -15 7 -18 -25 -4 -23 10 -25 13 -10 13 11 1 27 -3 35 -9z m191 -18 c-7 -2
-18 1 -23 6 -8 8 -4 9 13 5 13 -4 18 -8 10 -11z m379 -727 l35 -13 -42 -11
c-23 -6 -45 -16 -48 -21 -3 -6 -11 -10 -17 -10 -6 0 1 11 16 25 28 26 32 35
16 35 -5 0 -10 -6 -10 -14 0 -21 -23 -26 -45 -10 -10 8 -17 15 -14 17 18 16
47 25 59 20 8 -3 31 -11 50 -18z m-150 -25 c-8 -5 -19 -10 -25 -10 -5 0 -3 5
5 10 8 5 20 10 25 10 6 0 3 -5 -5 -10z m51 -17 c-11 -5 -11 -7 0 -15 11 -8 11
-9 -1 -5 -8 2 -21 -2 -28 -10 -8 -7 -19 -10 -25 -6 -8 5 -5 9 8 12 l20 4 -20
9 c-18 8 -18 8 2 4 13 -2 26 0 29 5 3 5 11 9 17 8 8 0 7 -3 -2 -6z m204 -1013
c3 -5 2 -10 -4 -10 -5 0 -13 5 -16 10 -3 6 -2 10 4 10 5 0 13 -4 16 -10z m-11
-31 c-3 -5 -10 -9 -15 -9 -6 0 -7 5 -4 10 3 6 -1 10 -9 10 -8 0 -17 4 -21 10
-3 5 7 5 25 -1 16 -6 27 -15 24 -20z m-39 -9 c3 -5 -4 -6 -15 -3 -11 3 -22 9
-25 13 -3 5 4 6 15 3 11 -3 22 -9 25 -13z m-15 -14 c0 -2 -9 -6 -20 -9 -11 -3
-18 -1 -14 4 5 9 34 13 34 5z m-50 -20 c0 -2 -7 -7 -16 -10 -8 -3 -12 -2 -9 4
6 10 25 14 25 6z m0 -317 c0 -7 9 -9 21 -6 15 4 19 3 11 -5 -11 -11 -52 -2
-52 13 0 5 5 9 10 9 6 0 10 -5 10 -11z"/>
<path d="M29584 21822 c-17 -12 19 -40 42 -31 10 4 13 8 7 8 -7 1 -12 6 -10
13 2 14 -23 21 -39 10z"/>
<path d="M29650 21820 c0 -5 5 -10 10 -10 6 0 10 5 10 10 0 6 -4 10 -10 10 -5
0 -10 -4 -10 -10z"/>
<path d="M30950 21010 c-9 -6 -10 -10 -3 -10 6 0 15 5 18 10 8 12 4 12 -15 0z"/>
<path d="M31310 20270 c0 -5 7 -10 16 -10 8 0 12 5 9 10 -3 6 -10 10 -16 10
-5 0 -9 -4 -9 -10z"/>
<path d="M24295 22360 c-3 -5 -1 -10 4 -10 6 0 11 5 11 10 0 6 -2 10 -4 10 -3
0 -8 -4 -11 -10z"/>
<path d="M24462 22362 c-7 -5 -10 -16 -6 -25 9 -25 24 -20 24 8 0 28 0 28 -18
17z"/>
<path d="M24320 22350 c0 -5 5 -10 11 -10 5 0 7 5 4 10 -3 6 -8 10 -11 10 -2
0 -4 -4 -4 -10z"/>
<path d="M24385 22330 c-3 -5 -1 -10 4 -10 6 0 11 5 11 10 0 6 -2 10 -4 10 -3
0 -8 -4 -11 -10z"/>
<path d="M24270 22260 c8 -5 20 -10 25 -10 6 0 3 5 -5 10 -8 5 -19 10 -25 10
-5 0 -3 -5 5 -10z"/>
<path d="M24350 22229 c0 -5 5 -7 10 -4 6 3 10 8 10 11 0 2 -4 4 -10 4 -5 0
-10 -5 -10 -11z"/>
<path d="M24320 22192 c0 -12 19 -26 26 -19 2 2 -2 10 -11 17 -9 8 -15 8 -15
2z"/>
<path d="M24380 22190 c0 -5 5 -10 11 -10 5 0 7 5 4 10 -3 6 -8 10 -11 10 -2
0 -4 -4 -4 -10z"/>
<path d="M24468 22183 c21 -8 13 -25 -9 -18 -15 5 -19 4 -14 -5 4 -7 -2 -25
-14 -40 -11 -16 -18 -36 -15 -44 7 -19 -12 -22 -20 -3 -3 6 -2 -8 1 -33 5 -37
3 -43 -8 -32 -23 22 -29 13 -29 -43 l0 -55 -42 5 c-30 4 -37 3 -23 -4 11 -4
23 -7 28 -4 4 2 7 -1 7 -7 0 -6 -10 -10 -22 -9 -13 2 -29 0 -36 -4 -13 -9 -7
-27 9 -27 6 0 8 4 4 9 -3 6 3 9 12 9 10 -1 104 33 208 76 105 42 216 87 248
99 31 11 57 24 57 27 0 8 -314 110 -336 109 -11 0 -14 -3 -6 -6z m12 -93 c0
-5 -4 -10 -10 -10 -5 0 -10 5 -10 10 0 6 5 10 10 10 6 0 10 -4 10 -10z m-35
-130 c13 -6 15 -9 5 -9 -8 0 -22 4 -30 9 -18 12 -2 12 25 0z m-15 -24 c0 -2
-7 -7 -16 -10 -8 -3 -12 -2 -9 4 6 10 25 14 25 6z"/>
<path d="M24300 22116 c0 -25 5 -48 10 -51 6 -4 10 13 10 44 0 28 -4 51 -10
51 -5 0 -10 -20 -10 -44z"/>
<path d="M27957 22039 c7 -7 15 -10 18 -7 3 3 -2 9 -12 12 -14 6 -15 5 -6 -5z"/>
<path d="M24597 21898 c-258 -107 -335 -143 -327 -153 10 -12 4 -21 -29 -40
-10 -6 -12 -4 -6 5 6 10 4 12 -10 6 -15 -5 -16 -4 -5 9 11 13 15 13 21 3 6 -9
9 -9 9 -1 0 21 -14 22 -50 1 -19 -10 -27 -17 -17 -14 9 3 17 1 17 -4 0 -6 -4
-10 -10 -10 -5 0 -10 -5 -10 -11 0 -5 4 -7 10 -4 21 13 -9 -44 -40 -75 -36
-37 -57 -83 -41 -88 17 -6 13 -78 -4 -92 -10 -9 -15 -9 -15 -1 0 6 5 11 10 11
15 0 12 26 -5 40 -15 13 -19 4 -18 -38 1 -8 -7 -11 -21 -7 -11 2 -15 2 -8 -1
6 -3 10 -9 8 -13 -3 -4 50 -27 117 -50 67 -24 203 -71 302 -106 99 -34 272
-95 385 -134 l206 -72 334 136 c370 151 802 327 867 353 24 9 43 20 43 25 0 4
-2 7 -3 7 -4 0 -834 280 -1202 406 -88 29 -162 54 -165 53 -3 0 -157 -63 -343
-141z m-410 -504 c-3 -3 -12 -4 -19 -1 -8 3 -5 6 6 6 11 1 17 -2 13 -5z"/>
<path d="M28000 22016 c0 -2 7 -9 15 -16 9 -7 15 -8 15 -2 0 5 -7 12 -15 16
-8 3 -15 4 -15 2z"/>
<path d="M24220 21979 c0 -11 5 -17 10 -14 6 3 10 13 10 21 0 8 -4 14 -10 14
-5 0 -10 -9 -10 -21z"/>
<path d="M28100 21989 c0 -5 9 -9 20 -9 11 0 20 2 20 4 0 2 -9 6 -20 9 -11 3
-20 1 -20 -4z"/>
<path d="M31360 21970 c14 -4 170 -58 348 -118 l322 -111 173 71 c257 106 277
115 283 121 3 3 -64 6 -148 6 -169 1 -549 16 -788 31 -85 6 -168 10 -185 9
-29 -1 -29 -1 -5 -9z"/>
<path d="M28112 21961 c-10 -6 -9 -10 7 -14 12 -3 19 -1 16 3 -3 5 1 11 7 13
9 4 8 6 -2 6 -8 0 -21 -3 -28 -8z"/>
<path d="M28200 21950 c20 -13 43 -13 35 0 -3 6 -16 10 -28 10 -18 0 -19 -2
-7 -10z"/>
<path d="M29939 21951 c11 -7 10 -10 -6 -15 -11 -3 -20 -13 -20 -20 0 -8 6
-12 14 -9 7 3 10 10 6 16 -4 6 0 8 11 4 10 -4 15 -3 11 3 -3 6 0 10 7 10 9 0
9 3 -2 10 -8 5 -19 10 -25 10 -5 0 -4 -4 4 -9z"/>
<path d="M28250 21940 c0 -5 -10 -11 -22 -13 -22 -4 -21 -4 2 -5 34 -2 58 13
36 21 -9 4 -16 2 -16 -3z"/>
<path d="M29883 21938 c-22 -28 -24 -38 -8 -32 9 4 13 9 11 12 -3 3 -1 11 5
19 6 7 9 13 6 13 -2 0 -9 -6 -14 -12z"/>
<path d="M33993 21943 c15 -2 39 -2 55 0 15 2 2 4 -28 4 -30 0 -43 -2 -27 -4z"/>
<path d="M28176 21928 c3 -5 10 -6 15 -3 13 9 11 12 -6 12 -8 0 -12 -4 -9 -9z"/>
<path d="M32885 21930 c-208 -6 -211 -6 -280 -37 -38 -17 -157 -66 -263 -108
-106 -43 -191 -79 -189 -81 5 -5 183 -66 800 -276 276 -93 527 -179 559 -190
l56 -19 54 27 c29 15 59 29 67 30 27 5 71 27 71 36 0 17 -31 20 -49 4 -26 -24
-37 -20 -15 6 18 20 18 21 1 15 -11 -4 -16 -3 -12 4 4 5 16 7 27 3 19 -6 19
-4 -3 26 -22 29 -24 30 -27 11 -6 -37 -22 -23 -22 19 0 22 -4 40 -10 40 -5 0
-10 23 -10 50 0 51 -6 59 -29 38 -11 -11 -12 -3 -7 42 3 30 3 49 0 43 -3 -7
-14 -13 -25 -13 -16 0 -19 7 -19 50 0 47 -11 63 -25 40 -10 -16 -35 -12 -35 6
0 8 4 13 9 10 5 -3 11 4 15 17 9 34 7 59 -4 52 -5 -3 -21 6 -36 22 -21 23 -23
29 -11 38 13 9 13 13 0 30 -15 19 -15 19 -8 -4 5 -17 4 -22 -6 -19 -9 3 -14
19 -13 44 1 21 -1 33 -3 27 -6 -17 -23 -16 -23 1 0 11 32 14 172 15 94 1 174
3 176 6 7 6 -598 3 -883 -5z m552 -192 c-3 -8 -6 -5 -6 6 -1 11 2 17 5 13 3
-3 4 -12 1 -19z"/>
<path d="M24160 21910 c0 -5 5 -10 10 -10 6 0 10 5 10 10 0 6 -4 10 -10 10 -5
0 -10 -4 -10 -10z"/>
<path d="M28309 21913 c-1 -5 -1 -12 0 -16 1 -5 -9 -6 -21 -2 -20 5 -21 5 -5
-5 13 -9 22 -9 32 0 8 6 18 9 23 6 5 -3 9 1 9 9 0 15 -36 22 -38 8z"/>
<path d="M29835 21889 c-9 -14 -2 -20 14 -10 8 6 9 11 3 15 -6 3 -14 1 -17 -5z"/>
<path d="M33556 21863 c-11 -11 -6 -23 9 -23 8 0 15 4 15 9 0 13 -16 22 -24
14z"/>
<path d="M24126 21825 c25 -19 40 -19 20 0 -8 8 -20 15 -27 15 -7 0 -4 -6 7
-15z"/>
<path d="M33592 21805 c-2 -44 11 -75 22 -56 4 6 3 11 -3 11 -5 0 -12 19 -14
43 l-4 42 -1 -40z"/>
<path d="M24030 21770 c-9 -6 -10 -10 -3 -10 6 0 15 5 18 10 8 12 4 12 -15 0z"/>
<path d="M23990 21750 c-9 -6 -10 -10 -3 -10 6 0 15 5 18 10 8 12 4 12 -15 0z"/>
<path d="M23910 21720 c-8 -5 -10 -10 -5 -10 6 0 17 5 25 10 8 5 11 10 5 10
-5 0 -17 -5 -25 -10z"/>
<path d="M24096 21691 c-23 -10 -35 -20 -29 -24 6 -4 13 -4 15 0 1 5 19 16 38
25 46 22 26 21 -24 -1z"/>
<path d="M24015 21651 c-7 -12 12 -24 25 -16 11 7 4 25 -10 25 -5 0 -11 -4
-15 -9z"/>
<path d="M23947 21619 c7 -7 15 -10 18 -7 3 3 -2 9 -12 12 -14 6 -15 5 -6 -5z"/>
<path d="M23900 21610 c-8 -5 -11 -12 -7 -16 4 -4 15 0 24 9 18 18 8 23 -17 7z"/>
<path d="M24023 21595 c-9 -24 1 -27 15 -5 8 13 8 20 2 20 -6 0 -13 -7 -17
-15z"/>
<path d="M23854 21585 c-10 -8 -14 -14 -9 -15 15 0 40 18 34 24 -3 3 -14 -1
-25 -9z"/>
<path d="M33680 21589 c0 -5 5 -7 10 -4 6 3 10 8 10 11 0 2 -4 4 -10 4 -5 0
-10 -5 -10 -11z"/>
<path d="M36951 21584 c0 -11 3 -14 6 -6 3 7 2 16 -1 19 -3 4 -6 -2 -5 -13z"/>
<path d="M23906 21521 c-3 -5 1 -12 10 -15 22 -8 25 -4 9 11 -8 7 -16 9 -19 4z"/>
<path d="M23978 21493 c7 -3 16 -2 19 1 4 3 -2 6 -13 5 -11 0 -14 -3 -6 -6z"/>
<path d="M33751 21462 c5 -20 9 -41 9 -46 0 -6 6 -4 13 3 10 11 10 14 0 18 -7
3 -13 15 -13 28 0 13 -4 26 -9 29 -5 4 -5 -10 0 -32z"/>
<path d="M36947 21436 c-10 -72 -9 -324 3 -331 10 -6 19 286 10 345 -6 35 -6
34 -13 -14z"/>
<path d="M23920 21463 c14 -3 30 -8 35 -12 17 -13 45 -21 45 -13 0 11 -61 32
-86 31 -13 -1 -11 -3 6 -6z"/>
<path d="M23707 21429 c7 -7 15 -10 18 -7 3 3 -2 9 -12 12 -14 6 -15 5 -6 -5z"/>
<path d="M33940 21430 c0 -5 4 -10 9 -10 6 0 13 5 16 10 3 6 -1 10 -9 10 -9 0
-16 -4 -16 -10z"/>
<path d="M23778 21403 c7 -3 16 -2 19 1 4 3 -2 6 -13 5 -11 0 -14 -3 -6 -6z"/>
<path d="M26977 21399 c7 -7 15 -10 18 -7 3 3 -2 9 -12 12 -14 6 -15 5 -6 -5z"/>
<path d="M33965 21400 c-7 -12 2 -12 30 0 19 8 19 9 -2 9 -12 1 -25 -3 -28 -9z"/>
<path d="M27011 21374 c0 -11 3 -14 6 -6 3 7 2 16 -1 19 -3 4 -6 -2 -5 -13z"/>
<path d="M23870 21376 c0 -2 7 -7 16 -10 8 -3 12 -2 9 4 -6 10 -25 14 -25 6z"/>
<path d="M27114 21348 c2 -9 0 -19 -7 -21 -7 -2 -1 -2 13 0 32 6 36 11 22 25
-9 9 -12 9 -12 -2 0 -13 -2 -13 -11 0 -9 13 -10 13 -5 -2z"/>
<path d="M33847 21349 c-9 -5 -23 -7 -30 -3 -9 5 -9 4 -1 -5 8 -9 19 -8 45 3
19 9 27 15 19 15 -8 0 -23 -4 -33 -10z"/>
<path d="M24005 21332 c3 -3 -2 -14 -12 -24 -9 -10 -12 -18 -7 -18 5 0 10 -21
12 -47 2 -38 0 -45 -10 -35 -6 6 -15 12 -18 12 -3 0 -12 -34 -19 -75 -14 -75
-26 -94 -34 -52 -2 12 -3 6 -1 -13 2 -19 8 -36 14 -38 13 -5 13 -82 0 -82 -5
0 -10 15 -10 34 0 40 -8 66 -21 66 -5 0 -7 -11 -3 -25 4 -15 1 -30 -9 -39 -10
-11 -13 -28 -9 -62 3 -28 1 -49 -6 -53 -6 -4 -12 -44 -13 -94 -2 -98 -11 -113
-53 -97 -38 14 -43 13 -20 -6 10 -8 14 -13 7 -10 -6 4 -14 2 -18 -4 -3 -5 -18
-10 -33 -11 -15 0 -21 -3 -15 -6 7 -2 59 7 115 21 115 27 279 59 408 77 60 9
126 29 225 69 77 31 215 88 308 125 92 37 166 69 164 71 -2 2 -216 75 -475
162 -260 88 -470 157 -467 154z m30 -22 c3 -6 -1 -7 -9 -4 -18 7 -21 14 -7 14
6 0 13 -4 16 -10z m35 -14 c0 -3 -4 -8 -10 -11 -5 -3 -10 -1 -10 4 0 6 5 11
10 11 6 0 10 -2 10 -4z m-93 -168 c-3 -8 -6 -5 -6 6 -1 11 2 17 5 13 3 -3 4
-12 1 -19z"/>
<path d="M33775 21320 c-3 -5 -2 -10 4 -10 5 0 13 5 16 10 3 6 2 10 -4 10 -5
0 -13 -4 -16 -10z"/>
<path d="M23905 21270 c3 -5 8 -10 11 -10 2 0 4 5 4 10 0 6 -5 10 -11 10 -5 0
-7 -4 -4 -10z"/>
<path d="M30859 21241 c-17 -5 -43 -31 -32 -31 5 0 14 5 19 10 6 6 24 13 40
16 16 3 31 7 33 10 5 5 -41 2 -60 -5z"/>
<path d="M33852 21241 c-11 -6 -10 -10 4 -15 9 -3 19 -4 22 -1 3 3 -1 5 -9 5
-11 0 -11 2 1 10 8 5 11 10 5 10 -5 0 -16 -4 -23 -9z"/>
<path d="M30790 21208 c0 -9 5 -20 10 -23 13 -8 13 5 0 25 -8 13 -10 13 -10
-2z"/>
<path d="M33772 21208 c-7 -7 -18 -13 -25 -14 -7 0 -20 -2 -29 -2 -33 -3 -18
-18 32 -34 29 -10 47 -12 43 -5 -4 6 0 8 10 4 11 -4 17 -1 17 9 0 11 -6 14
-22 9 -13 -3 -18 -3 -13 2 12 9 16 43 6 43 -4 0 -13 -6 -19 -12z"/>
<path d="M30840 21200 c-9 -6 -10 -10 -3 -10 6 0 15 5 18 10 8 12 4 12 -15 0z"/>
<path d="M33869 21161 c3 -25 6 -38 9 -28 2 9 8 17 13 17 17 0 10 48 -8 52
-16 4 -17 -1 -14 -41z"/>
<path d="M23821 21123 c-1 -76 -3 -83 -21 -83 -15 0 -20 -7 -20 -25 0 -31 15
-32 31 -2 7 12 16 25 22 28 6 5 6 34 0 85 l-10 79 -2 -82z"/>
<path d="M23860 21190 c0 -5 5 -10 10 -10 6 0 10 5 10 10 0 6 -4 10 -10 10 -5
0 -10 -4 -10 -10z"/>
<path d="M33380 21054 c-102 -41 -378 -153 -615 -249 -529 -214 -524 -211
-505 -219 8 -3 155 -53 325 -110 426 -143 823 -278 927 -314 l87 -31 160 67
c88 36 157 70 154 76 -3 5 -1 6 5 2 12 -7 142 43 142 55 0 10 -44 -2 -52 -15
-4 -6 -8 2 -8 17 0 24 3 27 20 22 11 -4 20 -2 20 4 0 6 -6 11 -14 11 -22 0
-28 32 -23 113 2 40 2 55 0 35 -6 -50 -23 -49 -23 2 0 22 -4 40 -9 40 -5 0
-12 35 -16 77 -4 43 -13 83 -21 90 -8 8 -14 10 -14 4 0 -6 -4 -11 -10 -11 -5
0 -10 18 -10 40 0 38 -2 40 -30 40 -28 0 -30 2 -30 40 0 36 2 40 26 40 23 0
25 3 22 41 -2 33 -8 44 -25 50 -20 7 -21 6 -11 -10 7 -11 8 -26 3 -37 -8 -17
-9 -16 -13 9 -2 15 -8 27 -13 27 -12 0 -12 37 1 45 6 3 10 2 10 -4 0 -6 6 -8
14 -5 22 9 -21 47 -55 48 -15 1 -25 4 -23 7 6 10 -45 21 -58 13 -7 -4 -8 -3
-4 4 4 7 1 12 -7 12 -8 0 -34 9 -58 19 -24 10 -53 21 -64 25 -12 3 -90 -23
-205 -70z m585 -743 c3 -5 0 -13 -6 -17 -7 -4 -9 -3 -5 4 3 5 0 13 -6 15 -9 4
-10 6 -1 6 6 1 14 -3 18 -8z"/>
<path d="M33980 21090 c-9 -6 -10 -10 -3 -10 6 0 15 5 18 10 8 12 4 12 -15 0z"/>
<path d="M34030 21090 c-8 -5 -10 -10 -5 -10 6 0 17 5 25 10 8 5 11 10 5 10
-5 0 -17 -5 -25 -10z"/>
<path d="M36940 20734 c0 -194 3 -293 10 -289 6 4 10 113 10 296 0 186 -4 289
-10 289 -6 0 -10 -105 -10 -296z"/>
<path d="M33950 20970 c0 -5 5 -10 11 -10 5 0 7 5 4 10 -3 6 -8 10 -11 10 -2
0 -4 -4 -4 -10z"/>
<path d="M24857 20891 c-170 -72 -236 -103 -182 -88 20 6 409 41 610 55 l110
7 -140 49 c-77 26 -156 50 -175 52 -27 3 -80 -15 -223 -75z"/>
<path d="M31125 20950 c4 -6 11 -8 16 -5 14 9 11 15 -7 15 -8 0 -12 -5 -9 -10z"/>
<path d="M31160 20919 c0 -5 5 -7 10 -4 6 3 10 8 10 11 0 2 -4 4 -10 4 -5 0
-10 -5 -10 -11z"/>
<path d="M34085 20920 c-3 -5 -1 -10 4 -10 6 0 11 5 11 10 0 6 -2 10 -4 10 -3
0 -8 -4 -11 -10z"/>
<path d="M23760 20897 c0 -9 -4 -17 -10 -17 -12 0 -13 -87 -1 -94 8 -5 22 114
15 123 -2 2 -4 -3 -4 -12z"/>
<path d="M34217 20899 c7 -7 15 -10 18 -7 3 3 -2 9 -12 12 -14 6 -15 5 -6 -5z"/>
<path d="M20348 20693 c-1 -93 -1 -199 -1 -238 0 -48 -3 -64 -8 -50 -6 13 -7
8 -2 -15 3 -19 9 -107 13 -195 5 -124 7 -67 8 253 1 226 0 412 -3 412 -3 0 -6
-75 -7 -167z"/>
<path d="M34000 20815 c0 -8 5 -15 10 -15 6 0 10 7 10 15 0 8 -4 15 -10 15 -5
0 -10 -7 -10 -15z"/>
<path d="M23818 20771 c4 -45 2 -51 -14 -51 -23 0 -7 -17 20 -22 18 -3 20 2
17 47 -1 28 -8 56 -15 63 -11 11 -12 4 -8 -37z"/>
<path d="M34030 20686 c0 -19 3 -41 6 -50 12 -32 24 -15 24 34 0 38 -4 50 -15
50 -10 0 -15 -10 -15 -34z"/>
<path d="M23585 20700 c27 -12 43 -12 25 0 -8 5 -22 9 -30 9 -10 0 -8 -3 5 -9z"/>
<path d="M23670 20679 c0 -4 14 -7 30 -7 17 1 30 4 30 8 0 3 -13 6 -30 6 -16
0 -30 -3 -30 -7z"/>
<path d="M23511 20604 c0 -11 3 -14 6 -6 3 7 2 16 -1 19 -3 4 -6 -2 -5 -13z"/>
<path d="M23540 20590 c-8 -5 -10 -10 -5 -10 6 0 17 5 25 10 8 5 11 10 5 10
-5 0 -17 -5 -25 -10z"/>
<path d="M23483 20583 c4 -3 5 -9 1 -14 -7 -12 7 -11 26 1 9 6 10 10 3 10 -6
0 -17 2 -25 3 -7 2 -10 2 -5 0z"/>
<path d="M23404 20524 c-18 -14 -18 -15 4 -4 12 6 22 13 22 15 0 8 -5 6 -26
-11z"/>
<path d="M34248 20453 c6 -2 18 -2 25 0 6 3 1 5 -13 5 -14 0 -19 -2 -12 -5z"/>
<path d="M34275 20420 c-3 -6 1 -7 9 -4 18 7 21 14 7 14 -6 0 -13 -4 -16 -10z"/>
<path d="M34180 20380 c-8 -5 -10 -10 -5 -10 6 0 17 5 25 10 8 5 11 10 5 10
-5 0 -17 -5 -25 -10z"/>
<path d="M31595 20371 c-3 -5 -1 -12 5 -16 5 -3 10 1 10 9 0 18 -6 21 -15 7z"/>
<path d="M36941 20208 c2 -120 4 -140 9 -93 12 92 12 245 0 245 -6 0 -9 -57
-9 -152z"/>
<path d="M31468 20313 c6 -2 18 -2 25 0 6 3 1 5 -13 5 -14 0 -19 -2 -12 -5z"/>
<path d="M34252 20306 c-19 -7 -38 -19 -43 -27 -5 -8 -9 -10 -9 -6 0 4 -6 2
-14 -5 -14 -13 -4 -28 19 -28 6 0 4 4 -4 9 -11 7 -9 10 8 16 12 3 19 11 16 16
-4 5 2 9 12 9 10 1 29 7 43 15 30 17 18 17 -28 1z"/>
<path d="M20325 20288 c-2 -7 -6 -68 -7 -136 -2 -92 0 -122 10 -122 9 0 12 34
12 135 0 125 -4 155 -15 123z"/>
<path d="M34248 20273 c6 -2 18 -2 25 0 6 3 1 5 -13 5 -14 0 -19 -2 -12 -5z"/>
<path d="M34153 20200 c0 -25 2 -35 4 -22 2 12 2 32 0 45 -2 12 -4 2 -4 -23z"/>
<path d="M34037 20215 c-28 -15 -30 -15 -48 -15 -5 0 -7 -5 -3 -12 5 -8 2 -9
-10 -5 -10 4 -23 4 -29 0 -7 -4 -59 -27 -117 -49 -63 -25 -99 -44 -90 -48 19
-8 373 -126 377 -126 2 0 3 5 3 10 0 6 -7 10 -15 10 -8 0 -15 5 -15 10 0 6 -7
10 -15 10 -12 0 -15 16 -15 80 0 63 -3 80 -14 80 -8 0 -17 4 -21 9 -3 6 6 6
25 1 23 -7 30 -5 30 6 0 8 -9 14 -20 14 -17 0 -19 2 -8 14 7 8 16 12 21 9 4
-2 7 1 7 6 0 15 -10 14 -43 -4z"/>
<path d="M33275 19909 c-600 -243 -720 -292 -782 -317 -35 -14 -63 -28 -63
-31 0 -3 116 -45 258 -93 141 -47 431 -145 644 -218 l387 -131 148 62 c81 35
184 77 227 95 53 21 80 37 82 49 2 12 -1 14 -8 7 -6 -6 -21 -7 -40 -1 -17 4
-34 6 -38 4 -4 -2 -7 2 -7 10 0 10 5 11 18 4 25 -13 25 -14 28 38 1 26 7 51
13 54 11 7 3 248 -11 356 -5 34 -4 54 3 56 19 6 -82 36 -106 30 -15 -3 -19 -2
-11 4 9 6 -58 33 -196 81 -115 40 -213 72 -217 71 -5 0 -153 -59 -329 -130z
m808 -63 c15 -11 17 -29 15 -132 -2 -100 -3 -106 -5 -36 -2 45 -8 82 -13 82
-6 0 -10 20 -10 44 0 34 -4 46 -17 49 -13 3 -14 5 -3 6 8 0 23 -6 33 -13z m27
-550 c0 -2 -7 -7 -16 -10 -8 -3 -12 -2 -9 4 6 10 25 14 25 6z"/>
<path d="M36944 19655 c0 -181 2 -257 3 -168 2 89 2 237 0 330 -1 92 -3 20 -3
-162z"/>
<path d="M23363 19932 c22 -23 25 -31 14 -42 -10 -12 -9 -12 5 -2 11 9 18 10
23 2 3 -5 2 -10 -2 -10 -5 0 -9 -9 -10 -20 -1 -11 2 -18 7 -15 4 3 11 -1 14
-7 3 -7 2 1 -1 17 -6 27 -5 29 10 16 9 -7 14 -18 11 -23 -3 -5 3 -12 15 -15
19 -5 25 -15 22 -35 0 -4 7 -4 16 -1 10 4 14 2 10 -4 -4 -6 3 -13 15 -16 14
-4 -14 29 -72 88 -52 52 -97 95 -99 95 -3 0 7 -13 22 -28z"/>
<path d="M34205 19950 c3 -5 8 -10 11 -10 2 0 4 5 4 10 0 6 -5 10 -11 10 -5 0
-7 -4 -4 -10z"/>
<path d="M34267 19909 c7 -7 15 -10 18 -7 3 3 -2 9 -12 12 -14 6 -15 5 -6 -5z"/>
<path d="M34357 19879 c7 -7 15 -10 18 -7 3 3 -2 9 -12 12 -14 6 -15 5 -6 -5z"/>
<path d="M31440 19840 c-9 -6 -10 -10 -3 -10 6 0 19 -3 27 -6 12 -5 15 -2 10
10 -7 18 -13 20 -34 6z"/>
<path d="M31535 19839 c4 -6 -3 -8 -22 -4 l-28 6 24 -14 c18 -11 20 -16 10
-20 -11 -4 -11 -6 1 -6 8 0 22 4 30 9 13 9 13 10 0 10 -12 0 -12 2 -2 9 11 7
10 9 -3 14 -10 4 -14 3 -10 -4z"/>
<path d="M34187 19834 c7 -3 10 -11 7 -19 -4 -10 0 -12 15 -8 20 5 20 6 4 19
-10 7 -22 13 -28 13 -5 0 -5 -3 2 -5z"/>
<path d="M31570 19809 c0 -5 5 -7 10 -4 6 3 10 8 10 11 0 2 -4 4 -10 4 -5 0
-10 -5 -10 -11z"/>
<path d="M34312 19786 c7 -8 17 -12 22 -9 4 3 2 9 -5 14 -22 13 -31 11 -17 -5z"/>
<path d="M31650 19770 c-12 -8 -10 -10 8 -10 13 0 20 4 17 10 -7 12 -6 12 -25
0z"/>
<path d="M34212 19723 l1 -48 4 43 c7 70 22 47 26 -38 l3 -80 0 82 c-1 71 -4
83 -18 86 -15 3 -18 -4 -16 -45z"/>
<path d="M23367 19723 c-12 -12 -7 -23 11 -23 13 0 14 2 3 9 -11 7 -11 9 0 14
8 3 9 6 3 6 -6 1 -14 -2 -17 -6z"/>
<path d="M23440 19700 c8 -5 20 -10 25 -10 6 0 3 5 -5 10 -8 5 -19 10 -25 10
-5 0 -3 -5 5 -10z"/>
<path d="M23520 19671 c0 -6 5 -13 11 -17 8 -4 7 -9 -2 -16 -11 -8 -11 -9 -1
-6 8 2 13 7 13 11 -1 4 -1 14 -1 22 0 8 -4 15 -10 15 -5 0 -10 -4 -10 -9z"/>
<path d="M23605 19640 c3 -5 12 -10 20 -10 8 0 16 -4 19 -9 3 -4 -6 -6 -21 -3
-18 3 -24 1 -19 -7 4 -6 10 -9 14 -7 4 2 5 -16 3 -40 -4 -56 -19 -57 -24 -1
-2 23 -4 3 -5 -45 -1 -53 2 -89 9 -93 6 -4 8 -13 5 -21 -4 -10 9 -8 47 7 29
12 82 33 120 48 37 14 67 29 67 32 0 17 -139 126 -179 141 -53 21 -65 22 -56
8z m90 -60 c-4 -6 -2 -17 4 -24 8 -10 8 -16 -2 -24 -11 -9 -13 -5 -11 21 2 36
2 37 10 37 3 0 2 -5 -1 -10z m45 -44 c0 -2 -7 -7 -16 -10 -8 -3 -12 -2 -9 4 6
10 25 14 25 6z m-100 -106 c-20 -13 -33 -13 -25 0 3 6 14 10 23 10 15 0 15 -2
2 -10z"/>
<path d="M23523 19520 c0 -47 2 -66 4 -42 2 23 2 61 0 85 -2 23 -4 4 -4 -43z"/>
<path d="M34233 19480 c0 -25 2 -35 4 -22 2 12 2 32 0 45 -2 12 -4 2 -4 -23z"/>
<path d="M34340 19430 c0 -5 4 -10 9 -10 6 0 13 5 16 10 3 6 -1 10 -9 10 -9 0
-16 -4 -16 -10z"/>
<path d="M23798 19377 c-64 -28 -115 -54 -112 -59 3 -4 -1 -5 -9 -2 -7 2 -36
-5 -62 -16 -38 -16 -46 -23 -35 -30 8 -6 11 -10 5 -10 -5 0 -3 -5 5 -10 13 -9
13 -11 0 -20 -8 -5 -10 -10 -5 -10 6 0 10 -64 9 -172 0 -95 1 -136 3 -90 2 45
7 82 12 82 13 0 22 -233 10 -241 -12 -7 -8 -80 5 -78 5 0 12 -3 15 -8 10 -15
100 -45 112 -37 7 4 10 3 6 -2 -3 -5 55 -30 128 -56 l133 -46 64 43 c273 183
244 414 -94 741 l-73 71 -117 -50z"/>
<path d="M34378 19403 c7 -3 16 -2 19 1 4 3 -2 6 -13 5 -11 0 -14 -3 -6 -6z"/>
<path d="M34325 19380 c-3 -6 1 -7 9 -4 18 7 21 14 7 14 -6 0 -13 -4 -16 -10z"/>
<path d="M23485 19350 c-3 -6 1 -7 9 -4 18 7 21 14 7 14 -6 0 -13 -4 -16 -10z"/>
<path d="M34146 19348 c3 -5 10 -6 15 -3 13 9 11 12 -6 12 -8 0 -12 -4 -9 -9z"/>
<path d="M23417 19339 c-10 -6 -24 -8 -32 -6 -14 6 -15 -17 0 -30 4 -4 5 -2 0
6 -6 10 -2 11 15 6 16 -5 20 -4 15 5 -4 7 -1 11 6 9 8 -1 23 -1 34 0 17 1 18
3 5 11 -19 12 -21 12 -43 -1z"/>
<path d="M31716 19318 c5 -8 0 -9 -16 -5 -17 4 -20 3 -12 -5 8 -8 18 -8 34 -1
19 8 20 10 4 16 -11 5 -15 3 -10 -5z"/>
<path d="M34290 19260 c-8 -5 -10 -10 -5 -10 6 0 17 5 25 10 8 5 11 10 5 10
-5 0 -17 -5 -25 -10z"/>
<path d="M23470 19240 c-12 -7 -10 -9 8 -7 12 0 22 5 22 9 0 11 -12 10 -30 -2z"/>
<path d="M31568 19243 c7 -3 16 -2 19 1 4 3 -2 6 -13 5 -11 0 -14 -3 -6 -6z"/>
<path d="M34250 19240 c-9 -6 -10 -10 -3 -10 6 0 15 5 18 10 8 12 4 12 -15 0z"/>
<path d="M23425 19220 c-4 -6 1 -7 11 -3 10 3 15 2 12 -3 -4 -5 6 -10 20 -11
l27 -1 -25 14 c-30 16 -37 17 -45 4z"/>
<path d="M34090 19180 c-91 -39 -108 -46 -170 -70 -30 -12 -59 -25 -63 -29
-11 -11 157 -62 180 -55 14 4 15 4 4 -4 -10 -7 0 -14 40 -27 30 -9 60 -19 67
-21 6 -3 12 -1 12 5 0 6 -8 11 -17 11 -15 0 -14 2 3 15 16 13 17 16 4 25 -8 6
-27 8 -42 6 -27 -5 -28 -4 -28 39 0 42 2 45 28 45 38 0 60 15 35 24 -16 7 -16
9 -2 19 17 13 33 48 21 46 -4 -1 -36 -14 -72 -29z m46 -5 c-20 -15 -36 -19
-36 -10 0 5 38 23 50 24 3 0 -4 -6 -14 -14z m4 -41 c0 -9 -28 -3 -46 11 -17
13 -16 14 14 4 17 -6 32 -13 32 -15z m0 -114 c0 -5 -7 -7 -15 -4 -8 4 -15 8
-15 10 0 2 7 4 15 4 8 0 15 -4 15 -10z"/>
<path d="M23521 18963 c0 -50 3 -83 9 -83 11 0 12 43 0 115 -7 47 -7 45 -9
-32z"/>
<path d="M33635 18996 c-44 -19 -224 -92 -400 -163 -176 -72 -418 -170 -537
-218 -120 -49 -218 -91 -218 -94 0 -3 109 -43 243 -88 133 -45 440 -148 682
-230 l440 -149 98 42 c75 32 94 43 80 49 -10 5 -25 8 -33 7 -10 -1 -11 0 -2 4
6 3 12 23 12 45 0 21 5 39 10 39 6 0 10 -20 10 -45 0 -25 3 -45 8 -45 4 0 6
19 4 41 -3 23 0 44 6 48 7 4 14 82 18 204 4 113 11 197 17 197 5 0 7 32 5 78
-3 42 -3 60 -1 40 2 -21 8 -38 14 -38 5 0 9 -18 9 -40 0 -22 -4 -40 -10 -40
-5 0 -10 -18 -10 -40 0 -69 17 -43 25 38 4 42 11 79 15 82 5 3 11 41 15 85 l7
80 -38 12 c-22 6 -109 36 -194 66 -85 30 -164 57 -175 60 -11 3 -54 -9 -100
-27z m461 -157 c1 -44 1 -44 -3 -4 -3 22 -10 44 -16 48 -8 6 -7 7 3 4 10 -2
15 -18 16 -48z m-66 -479 c0 -29 -4 -40 -15 -40 -11 0 -15 11 -15 40 0 29 4
40 15 40 11 0 15 -11 15 -40z"/>
<path d="M34225 18980 c3 -5 8 -10 11 -10 2 0 4 5 4 10 0 6 -5 10 -11 10 -5 0
-7 -4 -4 -10z"/>
<path d="M34238 18943 c7 -3 16 -2 19 1 4 3 -2 6 -13 5 -11 0 -14 -3 -6 -6z"/>
<path d="M34275 18940 c-3 -6 1 -7 9 -4 18 7 21 14 7 14 -6 0 -13 -4 -16 -10z"/>
<path d="M34330 18920 c-8 -5 -10 -10 -5 -10 6 0 17 5 25 10 8 5 11 10 5 10
-5 0 -17 -5 -25 -10z"/>
<path d="M34218 18843 c6 -2 18 -2 25 0 6 3 1 5 -13 5 -14 0 -19 -2 -12 -5z"/>
<path d="M31575 18794 c11 -8 19 -23 17 -32 -2 -14 -1 -14 7 -3 13 20 4 38
-22 45 -22 5 -22 5 -2 -10z"/>
<path d="M23452 18787 c-10 -12 -9 -16 9 -20 24 -6 49 1 49 14 0 13 -18 11
-26 -3 -5 -8 -9 -6 -14 6 -5 16 -8 16 -18 3z"/>
<path d="M34210 18760 c0 -22 -4 -40 -10 -40 -5 0 -10 -18 -10 -40 0 -29 4
-40 15 -40 12 0 15 16 15 80 0 44 -2 80 -5 80 -3 0 -5 -18 -5 -40z"/>
<path d="M31558 18773 c7 -3 16 -2 19 1 4 3 -2 6 -13 5 -11 0 -14 -3 -6 -6z"/>
<path d="M31635 18760 c-3 -6 1 -7 9 -4 18 7 21 14 7 14 -6 0 -13 -4 -16 -10z"/>
<path d="M23368 18693 c7 -3 16 -2 19 1 4 3 -2 6 -13 5 -11 0 -14 -3 -6 -6z"/>
<path d="M23510 18641 c24 -19 46 -19 34 0 -3 5 -10 7 -15 4 -5 -4 -9 -1 -9 4
0 6 -8 11 -17 11 -15 0 -13 -4 7 -19z"/>
<path d="M23618 18613 c6 -2 10 -9 6 -14 -5 -9 8 -13 40 -9 11 1 15 -3 12 -9
-4 -6 -17 -11 -29 -11 -13 0 -17 -3 -10 -8 14 -9 20 -102 8 -122 -6 -10 -4
-12 9 -7 10 4 22 7 27 7 6 0 7 4 4 10 -3 6 1 7 9 4 16 -6 90 16 166 49 l45 19
-145 49 c-80 27 -147 49 -150 48 -3 0 1 -3 8 -6z m62 -93 c0 -22 -4 -40 -10
-40 -5 0 -10 18 -10 40 0 22 5 40 10 40 6 0 10 -18 10 -40z"/>
<path d="M23526 18571 c-4 -5 4 -7 16 -4 14 3 18 1 12 -4 -11 -8 -26 -103 -17
-103 17 0 33 35 33 74 0 39 -3 46 -19 46 -11 0 -22 -4 -25 -9z"/>
<path d="M34160 18520 c0 -22 5 -40 10 -40 6 0 10 18 10 40 0 22 -4 40 -10 40
-5 0 -10 -18 -10 -40z"/>
<path d="M34082 18465 l0 -70 8 55 c5 30 4 61 -1 70 -5 10 -8 -10 -7 -55z"/>
<path d="M32278 18447 c-43 -18 -78 -34 -78 -37 0 -3 37 -20 83 -39 131 -54
308 -148 370 -196 68 -54 91 -87 91 -131 0 -61 -65 -107 -209 -149 -90 -26
-324 -66 -465 -80 l-74 -7 333 -114 c184 -63 342 -114 352 -114 10 0 114 40
231 88 117 49 347 144 512 212 l298 124 -38 14 c-151 54 -1327 463 -1328 461
-1 -1 -36 -15 -78 -32z"/>
<path d="M23528 18443 c7 -3 16 -2 19 1 4 3 -2 6 -13 5 -11 0 -14 -3 -6 -6z"/>
<path d="M23608 18423 c7 -3 16 -2 19 1 4 3 -2 6 -13 5 -11 0 -14 -3 -6 -6z"/>
<path d="M23505 18400 c-25 -11 1 -11 35 0 20 6 21 8 5 8 -11 0 -29 -3 -40 -8z"/>
<path d="M23440 18390 c0 -5 -10 -10 -22 -10 -12 0 -19 -3 -16 -6 9 -9 78 7
72 17 -7 12 -34 11 -34 -1z"/>
<path d="M23340 18360 c-11 -8 -7 -9 15 -4 37 8 45 14 19 14 -10 0 -26 -5 -34
-10z"/>
<path d="M34355 18280 c3 -6 1 -10 -6 -10 -7 0 -10 -3 -6 -6 3 -3 13 -2 22 4
16 8 16 9 1 15 -10 4 -15 3 -11 -3z"/>
<path d="M34310 18271 c0 -6 4 -13 10 -16 6 -3 7 1 4 9 -7 18 -14 21 -14 7z"/>
<path d="M34270 18240 c-8 -5 -10 -10 -5 -10 6 0 17 5 25 10 8 5 11 10 5 10
-5 0 -17 -5 -25 -10z"/>
<path d="M34164 18209 c-9 -16 2 -22 21 -11 15 8 16 10 1 15 -8 3 -18 2 -22
-4z"/>
<path d="M34110 18200 c0 -5 7 -7 15 -4 8 4 15 8 15 10 0 2 -7 4 -15 4 -8 0
-15 -4 -15 -10z"/>
<path d="M34212 18113 c-13 -5 -7 -23 9 -23 6 0 8 4 5 9 -4 5 0 12 6 14 7 3 9
5 3 5 -5 0 -16 -2 -23 -5z"/>
<path d="M34142 18081 c-11 -7 -11 -9 0 -14 9 -3 15 1 15 9 0 8 -1 14 -1 14
-1 0 -7 -4 -14 -9z"/>
<path d="M34080 18051 c0 -6 4 -12 8 -15 5 -3 9 1 9 9 0 8 -4 15 -9 15 -4 0
-8 -4 -8 -9z"/>
<path d="M34120 18050 c0 -5 5 -10 10 -10 6 0 10 5 10 10 0 6 -4 10 -10 10 -5
0 -10 -4 -10 -10z"/>
<path d="M34005 18020 c3 -6 -1 -7 -9 -4 -9 3 -16 1 -16 -5 0 -6 9 -11 20 -11
11 0 20 7 20 15 0 8 -5 15 -11 15 -5 0 -7 -4 -4 -10z"/>
<path d="M34110 18007 c0 -9 -8 -21 -17 -26 -10 -6 -13 -10 -8 -10 6 0 19 6
29 14 16 12 17 18 8 27 -9 9 -12 8 -12 -5z"/>
<path d="M33700 17904 c-74 -31 -202 -83 -285 -116 -82 -33 -168 -68 -190 -78
-22 -9 -127 -52 -233 -95 -106 -43 -191 -79 -190 -81 3 -2 835 -284 916 -310
41 -13 42 -12 42 9 0 13 6 29 13 36 10 11 9 13 -5 7 -25 -8 -45 -14 -35 -9 4
3 7 25 7 49 0 46 15 60 23 22 l4 -23 2 23 c1 24 16 30 25 10 3 -7 4 -4 1 8 -3
13 3 32 17 49 15 19 18 30 10 33 -20 6 -14 31 13 54 19 17 25 31 25 65 0 32 4
43 15 43 12 0 15 13 15 55 0 46 4 59 25 77 19 17 25 31 25 64 0 25 -5 44 -12
47 -8 2 -9 8 -4 13 5 5 11 4 13 -3 3 -7 11 -13 19 -13 13 0 19 18 15 48 -1 6
4 12 11 12 18 0 -2 16 -31 25 -23 7 -24 6 -17 -26 4 -23 3 -30 -4 -23 -5 5
-11 22 -12 37 -3 29 -35 46 -59 31 -8 -4 -9 -3 -5 4 12 21 -15 12 -154 -44z
m137 -56 c-3 -8 -6 -5 -6 6 -1 11 2 17 5 13 3 -3 4 -12 1 -19z m3 -313 c0 -8
-4 -15 -10 -15 -5 0 -10 7 -10 15 0 8 5 15 10 15 6 0 10 -7 10 -15z m-93 -301
c-3 -3 -12 -4 -19 -1 -8 3 -5 6 6 6 11 1 17 -2 13 -5z"/>
<path d="M34185 17950 c-13 -6 -15 -9 -5 -9 8 0 22 4 30 9 18 12 2 12 -25 0z"/>
<path d="M34047 17879 c7 -7 15 -10 18 -7 3 3 -2 9 -12 12 -14 6 -15 5 -6 -5z"/>
<path d="M34180 17835 c46 -18 64 -17 25 0 -16 8 -37 14 -45 14 -8 0 1 -7 20
-14z"/>
<path d="M31475 17774 c-393 -24 -785 -54 -1045 -79 -140 -14 -304 -30 -365
-35 -104 -10 -307 -36 -635 -81 -488 -68 -929 -180 -1138 -289 -110 -57 -157
-99 -177 -160 -22 -67 -13 -99 47 -165 122 -134 432 -270 934 -410 200 -56
659 -165 694 -165 11 0 54 14 96 32 l76 31 -61 20 c-33 12 -57 25 -54 30 3 6
1 7 -6 3 -16 -10 -53 3 -45 16 4 7 2 8 -4 4 -7 -4 -42 3 -78 15 -36 12 -61 25
-55 28 6 4 1 12 -11 20 -18 11 -20 11 -15 -3 8 -19 12 -19 -51 -1 -29 9 -52
20 -52 26 0 6 -5 7 -10 4 -11 -7 -80 15 -80 26 0 4 -6 7 -12 6 -50 -2 -52 3
-16 28 35 24 69 36 38 14 -12 -9 -11 -10 8 -6 27 6 93 -13 86 -24 -3 -5 1 -7
8 -4 7 3 105 -27 218 -66 302 -104 285 -100 350 -71 152 67 352 142 363 136 7
-4 9 -3 4 1 -4 5 23 21 60 37 38 16 77 33 88 38 27 13 524 216 608 249 37 14
67 29 67 32 0 4 -33 18 -72 32 -40 14 -121 42 -180 62 -64 22 -105 42 -101 48
3 6 1 7 -6 3 -17 -11 -231 64 -231 81 0 7 5 13 10 13 6 0 10 7 10 15 0 8 -5
15 -12 15 -6 0 -9 2 -7 5 9 9 49 -7 42 -18 -3 -6 -1 -7 6 -3 15 10 113 -23
106 -35 -4 -5 0 -6 8 -3 8 3 129 -33 269 -80 139 -47 261 -86 269 -86 25 0
1139 459 1139 470 0 3 -42 20 -92 37 -51 17 -217 74 -369 127 -315 109 -260
102 -624 80z m-900 -433 c14 -6 8 -8 -23 -8 -28 0 -39 3 -30 8 16 10 26 10 53
0z m50 -21 c4 -6 10 -8 14 -6 4 3 8 -1 8 -9 0 -19 -4 -19 -29 5 -12 11 -17 20
-10 20 6 0 14 -5 17 -10z m-69 -15 c-36 -19 -42 -19 -26 0 7 8 22 15 34 15 18
0 17 -2 -8 -15z m53 -9 c9 -11 7 -15 -8 -19 -17 -4 -20 4 -12 31 2 5 9 1 20
-12z m101 -3 c2 -2 -2 -8 -10 -13 -13 -9 -13 -10 0 -11 8 -1 19 -1 24 0 5 1 3
-6 -4 -16 -8 -10 -15 -19 -15 -20 -1 -2 -26 6 -56 17 -30 11 -42 18 -26 15 85
-16 83 -16 47 -1 -28 11 -32 15 -18 21 10 4 15 12 12 17 -6 10 34 2 46 -9z
m-1405 -553 c-19 -8 -19 -8 5 -18 14 -6 18 -11 10 -11 -8 0 -25 7 -37 17 l-23
17 33 2 c25 1 28 0 12 -7z m-110 -10 c13 -5 14 -9 5 -9 -8 0 -24 4 -35 9 -13
5 -14 9 -5 9 8 0 24 -4 35 -9z m204 -14 c19 -7 31 -15 25 -17 -5 -3 -25 2 -44
12 -40 21 -31 23 19 5z m-121 -21 c-3 -3 -9 2 -12 12 -6 14 -5 15 5 6 7 -7 10
-15 7 -18z m122 -13 c3 -2 -5 -1 -17 2 -18 6 -22 4 -17 -8 7 -18 -4 -20 -26
-5 -13 9 -12 10 3 5 11 -4 16 -2 11 5 -3 6 -17 8 -33 4 -17 -4 -23 -3 -16 3
21 21 71 18 95 -6z"/>
<path d="M34000 17776 c0 -9 5 -16 10 -16 6 0 10 4 10 9 0 6 -4 13 -10 16 -5
3 -10 -1 -10 -9z"/>
<path d="M32535 17431 c-167 -69 -570 -234 -817 -334 -98 -40 -178 -74 -178
-77 0 -3 109 -42 243 -87 133 -45 428 -145 656 -222 l414 -140 106 44 c213 86
427 175 456 189 17 8 41 18 54 21 19 6 21 9 10 17 -10 7 -8 8 7 3 24 -6 76 13
68 26 -3 5 2 6 10 3 11 -4 16 0 16 10 0 9 6 16 14 16 8 0 12 9 10 26 -2 19 1
24 13 20 11 -5 13 -2 9 10 -3 8 -6 18 -6 20 0 3 -5 2 -11 -2 -7 -4 -10 -1 -7
7 3 8 10 13 16 12 14 -3 35 34 27 47 -3 5 1 26 10 46 8 20 12 40 9 45 -3 5 7
4 21 -1 35 -13 57 -12 25 2 -28 11 -318 113 -535 188 -77 27 -218 76 -314 109
-95 34 -176 61 -180 60 -3 0 -69 -27 -146 -58z m1095 -291 c-8 -5 -22 -9 -30
-9 -10 0 -8 3 5 9 27 12 43 12 25 0z m-50 -210 c0 -27 -3 -30 -30 -30 -27 0
-30 3 -30 30 0 27 3 30 30 30 27 0 30 -3 30 -30z m-139 -53 c-10 -9 -11 -8 -5
6 3 10 9 15 12 12 3 -3 0 -11 -7 -18z m-16 -47 c-3 -5 -12 -10 -18 -10 -7 0
-6 4 3 10 19 12 23 12 15 0z"/>
<path d="M33837 17291 c-3 -14 -1 -18 9 -14 16 6 18 19 5 27 -5 3 -11 -3 -14
-13z"/>
<path d="M30775 17250 c-19 -8 -19 -9 3 -9 12 -1 22 4 22 9 0 6 -1 10 -2 9 -2
0 -12 -4 -23 -9z"/>
<path d="M33826 17233 c-4 -9 -3 -20 2 -25 4 -4 9 4 10 17 2 29 -3 32 -12 8z"/>
<path d="M33944 17164 c-18 -14 -18 -15 4 -4 12 6 22 13 22 15 0 8 -5 6 -26
-11z"/>
<path d="M33805 17090 c4 -6 1 -10 -5 -10 -6 0 -8 -4 -5 -10 3 -5 11 -10 16
-10 6 0 7 5 4 10 -3 6 4 10 16 10 19 0 20 -2 8 -17 -11 -15 -11 -16 1 -5 8 6
21 12 30 12 13 0 13 -1 0 -10 -8 -5 -10 -10 -5 -10 10 0 44 19 35 20 -3 0 -27
7 -53 15 -26 8 -45 10 -42 5z"/>
<path d="M33871 17036 c2 -2 15 -9 29 -15 24 -11 24 -11 6 3 -16 13 -49 24
-35 12z"/>
<path d="M33770 17020 c-8 -5 -12 -11 -9 -14 3 -3 14 1 25 9 21 16 8 20 -16 5z"/>
<path d="M33717 16983 c-12 -11 -8 -23 8 -23 8 0 15 7 15 15 0 16 -12 20 -23
8z"/>
<path d="M33804 16974 c-19 -15 -19 -15 1 -6 11 5 27 12 35 15 13 5 13 6 -1 6
-8 1 -24 -6 -35 -15z"/>
<path d="M31255 16909 c-342 -141 -605 -249 -842 -345 -134 -54 -243 -101
-243 -104 0 -4 48 -23 108 -43 59 -19 334 -113 612 -207 278 -95 525 -179 551
-187 l45 -16 190 78 c104 43 241 99 304 126 108 45 597 247 730 301 28 12 40
6 -210 93 -69 24 -262 91 -430 150 -168 59 -375 131 -460 160 -85 29 -162 56
-170 59 -8 3 -91 -26 -185 -65z"/>
<path d="M33755 16961 c-6 -5 -19 -11 -30 -13 -13 -2 -16 -6 -9 -11 7 -4 23 2
35 13 13 11 22 19 19 20 -4 0 -10 -4 -15 -9z"/>
<path d="M33775 16855 c-16 -8 -23 -14 -14 -15 8 0 24 7 35 15 23 18 18 18
-21 0z"/>
<path d="M33806 16831 c-15 -6 -16 -9 -5 -13 8 -3 20 1 27 8 14 15 7 17 -22 5z"/>
<path d="M33740 16820 c8 -5 20 -10 25 -10 6 0 3 5 -5 10 -8 5 -19 10 -25 10
-5 0 -3 -5 5 -10z"/>
<path d="M33675 16810 c3 -5 8 -10 11 -10 2 0 4 5 4 10 0 6 -5 10 -11 10 -5 0
-7 -4 -4 -10z"/>
<path d="M33647 16804 c-3 -3 -3 -12 0 -19 3 -9 -7 -17 -29 -24 -18 -5 -25
-10 -16 -10 26 -2 48 10 58 30 10 17 -1 35 -13 23z"/>
<path d="M33412 16708 c-70 -29 -98 -44 -90 -50 9 -6 6 -7 -8 -4 -24 7 -345
-120 -323 -129 73 -27 193 -64 197 -60 2 2 11 -3 20 -11 8 -9 23 -13 33 -11
10 3 19 1 21 -4 2 -5 18 -13 36 -18 20 -6 30 -6 27 0 -4 5 -1 9 5 9 6 0 8 5 5
10 -3 6 1 10 9 10 9 0 15 3 14 8 0 4 2 15 7 25 4 10 5 21 1 24 -3 4 -6 0 -6
-9 0 -15 -48 -43 -58 -33 -4 3 4 8 16 12 18 4 22 13 22 44 0 22 5 39 10 39 6
0 10 19 10 43 l0 43 36 -4 c24 -3 34 -1 30 6 -3 6 2 13 13 17 10 3 22 17 25
31 4 14 11 22 15 19 5 -3 20 -1 33 4 12 6 17 10 10 10 -7 1 -10 6 -7 11 8 13
16 15 -103 -32z m-99 -275 c-7 -2 -19 -2 -25 0 -7 3 -2 5 12 5 14 0 19 -2 13
-5z"/>
<path d="M29421 16666 c-9 -10 -6 -12 14 -8 29 5 31 8 11 15 -8 3 -19 0 -25
-7z"/>
<path d="M29475 16673 c6 -4 11 -17 10 -27 0 -11 7 -21 15 -24 8 -3 12 -1 8 3
-4 5 -3 14 4 22 13 16 11 18 -22 27 -14 4 -20 4 -15 -1z"/>
<path d="M33520 16650 c0 -5 14 -10 30 -10 17 0 30 5 30 10 0 6 -13 10 -30 10
-16 0 -30 -4 -30 -10z"/>
<path d="M29627 16619 c7 -7 15 -10 18 -7 3 3 -2 9 -12 12 -14 6 -15 5 -6 -5z"/>
<path d="M29595 16600 c3 -5 11 -10 16 -10 6 0 7 5 4 10 -3 6 -11 10 -16 10
-6 0 -7 -4 -4 -10z"/>
<path d="M29670 16600 c0 -5 5 -10 10 -10 6 0 10 5 10 10 0 6 -4 10 -10 10 -5
0 -10 -4 -10 -10z"/>
<path d="M33525 16587 c-4 -10 -5 -21 -1 -24 10 -10 18 4 13 24 -4 17 -4 17
-12 0z"/>
<path d="M29695 16580 c-8 -13 5 -13 25 0 13 8 13 10 -2 10 -9 0 -20 -4 -23
-10z"/>
<path d="M33375 16550 c3 -5 10 -10 16 -10 5 0 9 5 9 10 0 6 -7 10 -16 10 -8
0 -12 -4 -9 -10z"/>
<path d="M33440 16490 c0 -5 5 -10 11 -10 5 0 7 5 4 10 -3 6 -8 10 -11 10 -2
0 -4 -4 -4 -10z"/>
<path d="M32630 16391 c-118 -49 -387 -158 -597 -244 -211 -86 -390 -160 -398
-164 -9 -6 102 -36 313 -87 180 -43 455 -109 611 -147 156 -38 286 -67 288
-65 3 3 -12 8 -33 12 -32 6 -35 8 -19 15 19 7 19 8 -1 8 -12 1 -27 7 -33 15
-10 12 -8 14 16 12 15 -2 31 2 35 8 12 18 9 64 -4 69 -8 2 -9 8 -4 13 5 5 11
4 13 -3 6 -17 51 -16 69 1 17 18 18 63 2 69 -8 2 -9 8 -4 13 5 5 11 4 13 -3 3
-7 17 -13 33 -13 22 0 30 7 41 32 7 18 20 40 29 49 35 39 40 49 40 75 0 22 3
25 21 21 16 -4 19 -3 11 5 -14 14 16 61 34 54 8 -3 14 1 14 9 0 8 5 15 10 15
15 0 12 58 -2 63 -8 2 -9 8 -4 13 5 5 11 4 13 -3 3 -7 17 -13 33 -13 22 0 30
7 41 33 7 17 19 36 26 40 7 4 13 15 13 23 0 11 6 13 23 8 12 -3 19 -3 15 1 -4
4 -49 23 -100 40 -51 18 -146 51 -210 74 -65 23 -121 41 -125 40 -5 0 -105
-40 -223 -88z m595 -51 c3 -5 2 -10 -4 -10 -5 0 -13 5 -16 10 -3 6 -2 10 4 10
5 0 13 -4 16 -10z m-25 -39 c0 -17 -4 -33 -10 -36 -6 -4 -10 8 -10 29 0 20 5
36 10 36 6 0 10 -13 10 -29z m-180 -251 c0 -16 -4 -30 -10 -30 -5 0 -10 14
-10 30 0 17 5 30 10 30 6 0 10 -13 10 -30z m-64 -47 c-10 -10 -19 5 -10 18 6
11 8 11 12 0 2 -7 1 -15 -2 -18z m1 -80 c-3 -2 -16 -3 -29 -1 l-23 3 25 25 25
25 3 -23 c2 -13 1 -26 -1 -29z m-77 -58 c0 -28 -15 -33 -24 -8 -4 9 -1 20 6
25 18 11 18 11 18 -17z m-80 -90 c0 -8 -7 -15 -15 -15 -26 0 -18 20 13 29 1 1
2 -6 2 -14z m-67 -32 c-3 -7 -9 -10 -14 -7 -14 8 -11 21 5 21 8 0 12 -6 9 -14z
m37 -29 c0 -2 -7 -4 -15 -4 -8 0 -15 4 -15 10 0 5 7 7 15 4 8 -4 15 -8 15 -10z"/>
<path d="M33391 16411 c-10 -17 -9 -21 3 -21 20 0 31 19 18 32 -7 7 -14 3 -21
-11z"/>
<path d="M29995 16394 c-27 -13 -59 -24 -69 -24 -11 0 -17 -2 -15 -5 6 -5 813
-185 826 -184 4 0 -48 20 -117 44 -69 24 -224 77 -344 119 -120 42 -222 76
-225 75 -3 0 -28 -11 -56 -25z"/>
<path d="M29838 16383 c7 -3 16 -2 19 1 4 3 -2 6 -13 5 -11 0 -14 -3 -6 -6z"/>
<path d="M33469 16362 c18 -7 36 -11 39 -8 3 4 -1 6 -9 6 -12 0 -12 2 0 9 10
6 2 9 -24 8 l-39 -1 33 -14z"/>
<path d="M33310 16310 c0 -5 5 -10 10 -10 6 0 10 5 10 10 0 6 -4 10 -10 10 -5
0 -10 -4 -10 -10z"/>
<path d="M33320 16280 c0 -5 7 -10 16 -10 8 0 12 5 9 10 -3 6 -10 10 -16 10
-5 0 -9 -4 -9 -10z"/>
<path d="M33400 16280 c0 -5 5 -10 10 -10 6 0 10 5 10 10 0 6 -4 10 -10 10 -5
0 -10 -4 -10 -10z"/>
<path d="M33437 16266 c-4 -10 -1 -13 8 -9 8 3 12 9 9 14 -7 12 -11 11 -17 -5z"/>
<path d="M33325 16250 c3 -5 12 -7 20 -3 21 7 19 13 -6 13 -11 0 -18 -4 -14
-10z"/>
<path d="M33280 16240 c0 -5 7 -7 15 -4 8 4 15 8 15 10 0 2 -7 4 -15 4 -8 0
-15 -4 -15 -10z"/>
<path d="M33236 16181 c-4 -7 -5 -15 -2 -18 9 -9 19 4 14 18 -4 11 -6 11 -12
0z"/>
<path d="M33291 16174 c0 -11 3 -14 6 -6 3 7 2 16 -1 19 -3 4 -6 -2 -5 -13z"/>
<path d="M33231 16094 c0 -11 3 -14 6 -6 3 7 2 16 -1 19 -3 4 -6 -2 -5 -13z"/>
<path d="M33120 16010 c0 -5 5 -10 11 -10 5 0 7 5 4 10 -3 6 -8 10 -11 10 -2
0 -4 -4 -4 -10z"/>
<path d="M33138 15981 c-10 -10 -18 -21 -18 -25 0 -12 37 13 44 29 7 20 -5 18
-26 -4z"/>
<path d="M33040 15919 c0 -5 5 -7 10 -4 6 3 10 8 10 11 0 2 -4 4 -10 4 -5 0
-10 -5 -10 -11z"/>
<path d="M33051 15854 c0 -11 3 -14 6 -6 3 7 2 16 -1 19 -3 4 -6 -2 -5 -13z"/>
<path d="M32978 15846 c-19 -14 -23 -26 -10 -26 4 0 13 9 20 20 14 23 13 24
-10 6z"/>
<path d="M32915 15770 c-3 -5 -1 -10 4 -10 6 0 11 5 11 10 0 6 -2 10 -4 10 -3
0 -8 -4 -11 -10z"/>
<path d="M32865 15680 c-3 -5 0 -10 7 -10 7 0 23 -3 36 -6 13 -4 22 -2 22 5 0
7 -4 9 -10 6 -5 -3 -18 -1 -29 5 -13 7 -22 7 -26 0z"/>
<path d="M32949 15658 c-11 -7 -11 -8 1 -7 8 1 23 -1 32 -5 10 -5 22 -6 28 -4
6 2 -2 8 -19 14 -18 7 -34 8 -42 2z"/>
<path d="M33045 15630 c11 -5 29 -8 40 -8 16 0 15 2 -5 8 -34 11 -60 11 -35 0z"/>
<path d="M33118 15613 c7 -3 16 -2 19 1 4 3 -2 6 -13 5 -11 0 -14 -3 -6 -6z"/>
<path d="M11160 12965 c80 -41 150 -74 155 -74 6 0 -55 33 -135 74 -80 41
-149 74 -155 74 -5 0 55 -33 135 -74z"/>
<path d="M11337 12879 c7 -7 15 -10 18 -7 3 3 -2 9 -12 12 -14 6 -15 5 -6 -5z"/>
<path d="M11700 12700 c107 -54 200 -99 205 -99 6 0 -78 45 -185 99 -107 54
-199 99 -205 99 -5 0 78 -45 185 -99z"/>
<path d="M11981 12566 c10 -9 269 -136 269 -131 0 5 -256 135 -267 135 -3 0
-4 -2 -2 -4z"/>
<path d="M12300 12405 c14 -8 30 -14 35 -14 6 0 -1 6 -15 14 -14 8 -29 14 -35
14 -5 0 1 -6 15 -14z"/>
<path d="M12377 12369 c7 -7 15 -10 18 -7 3 3 -2 9 -12 12 -14 6 -15 5 -6 -5z"/>
<path d="M12670 12225 c102 -52 190 -94 195 -94 6 0 -73 42 -175 94 -102 52
-189 94 -195 94 -5 0 73 -42 175 -94z"/>
<path d="M13130 12000 c85 -43 160 -79 165 -79 6 0 -60 36 -145 79 -85 43
-159 79 -165 79 -5 0 60 -36 145 -79z"/>
<path d="M13680 11730 c85 -43 160 -79 165 -79 6 0 -60 36 -145 79 -85 43
-159 79 -165 79 -5 0 60 -36 145 -79z"/>
<path d="M14120 11515 c80 -41 150 -74 155 -74 6 0 -55 33 -135 74 -80 41
-149 74 -155 74 -5 0 55 -33 135 -74z"/>
<path d="M14471 11346 c10 -9 149 -76 149 -71 0 5 -136 75 -146 75 -4 0 -5 -2
-3 -4z"/>
<path d="M14750 11205 c36 -19 70 -34 75 -34 6 0 -19 15 -55 34 -36 19 -69 34
-75 34 -5 0 19 -15 55 -34z"/>
<path d="M15130 11020 c85 -43 160 -79 165 -79 6 0 -60 36 -145 79 -85 43
-159 79 -165 79 -5 0 60 -36 145 -79z"/>
<path d="M15450 10866 c0 -2 7 -7 16 -10 8 -3 12 -2 9 4 -6 10 -25 14 -25 6z"/>
<path d="M15780 10700 c19 -11 40 -19 45 -19 6 0 -6 8 -25 19 -19 11 -39 19
-45 19 -5 0 6 -8 25 -19z"/>
<path d="M15847 10669 c7 -7 15 -10 18 -7 3 3 -2 9 -12 12 -14 6 -15 5 -6 -5z"/>
<path d="M16170 10510 c74 -38 140 -69 145 -69 6 0 -51 31 -125 69 -74 38
-139 69 -145 69 -5 0 51 -31 125 -69z"/>
<path d="M16357 10419 c7 -7 15 -10 18 -7 3 3 -2 9 -12 12 -14 6 -15 5 -6 -5z"/>
<path d="M16620 10290 c96 -49 180 -89 185 -89 6 0 -69 40 -165 89 -96 49
-179 89 -185 89 -5 0 69 -40 165 -89z"/>
<path d="M16834 10186 c11 -9 24 -16 30 -16 12 0 7 5 -24 19 -24 11 -24 11 -6
-3z"/>
<path d="M16961 10126 c10 -9 89 -46 89 -41 0 5 -75 45 -86 45 -4 0 -5 -2 -3
-4z"/>
<path d="M17210 10000 c41 -21 80 -39 85 -39 6 0 -24 18 -65 39 -41 21 -79 39
-85 39 -5 0 24 -18 65 -39z"/>
<path d="M17317 9949 c7 -7 15 -10 18 -7 3 3 -2 9 -12 12 -14 6 -15 5 -6 -5z"/>
<path d="M17390 9916 c0 -2 7 -7 16 -10 8 -3 12 -2 9 4 -6 10 -25 14 -25 6z"/>
<path d="M17640 9790 c107 -54 200 -99 205 -99 6 0 -78 45 -185 99 -107 54
-199 99 -205 99 -5 0 78 -45 185 -99z"/>
<path d="M17941 9646 c10 -9 389 -196 389 -191 0 3 -85 48 -190 100 -167 84
-214 105 -199 91z"/>
<path d="M18600 9320 c85 -43 160 -79 165 -79 6 0 -60 36 -145 79 -85 43 -159
79 -165 79 -5 0 60 -36 145 -79z"/>
<path d="M18787 9229 c7 -7 15 -10 18 -7 3 3 -2 9 -12 12 -14 6 -15 5 -6 -5z"/>
<path d="M18847 9199 c7 -7 15 -10 18 -7 3 3 -2 9 -12 12 -14 6 -15 5 -6 -5z"/>
<path d="M19120 9065 c102 -52 190 -94 195 -94 6 0 -73 42 -175 94 -102 52
-189 94 -195 94 -5 0 73 -42 175 -94z"/>
<path d="M19590 8835 c91 -46 170 -84 175 -84 6 0 -64 38 -155 84 -91 46 -169
84 -175 84 -5 0 64 -38 155 -84z"/>
<path d="M19780 8745 c0 -7 61 -37 66 -33 2 3 -12 12 -31 21 -19 9 -35 15 -35
12z"/>
<path d="M19900 8686 c0 -2 7 -7 16 -10 8 -3 12 -2 9 4 -6 10 -25 14 -25 6z"/>
<path d="M20120 8575 c102 -52 190 -94 195 -94 6 0 -73 42 -175 94 -102 52
-189 94 -195 94 -5 0 73 -42 175 -94z"/>
<path d="M20600 8340 c96 -49 180 -89 185 -89 6 0 -69 40 -165 89 -96 49 -179
89 -185 89 -5 0 69 -40 165 -89z"/>
<path d="M20865 8210 c3 -4 14 -10 25 -13 11 -3 18 -2 15 3 -3 4 -14 10 -25
13 -11 3 -18 2 -15 -3z"/>
<path d="M20921 8186 c10 -9 69 -36 69 -32 0 6 -55 36 -66 36 -4 0 -5 -2 -3
-4z"/>
<path d="M21190 8050 c63 -32 120 -59 125 -59 6 0 -42 27 -105 59 -63 32 -119
59 -125 59 -5 0 42 -27 105 -59z"/>
<path d="M21344 7976 c11 -9 24 -16 30 -16 12 0 7 5 -24 19 -24 11 -24 11 -6
-3z"/>
<path d="M21600 7850 c107 -54 200 -99 205 -99 6 0 -78 45 -185 99 -107 54
-199 99 -205 99 -5 0 78 -45 185 -99z"/>
<path d="M21887 7709 c7 -7 15 -10 18 -7 3 3 -2 9 -12 12 -14 6 -15 5 -6 -5z"/>
<path d="M21921 7696 c10 -9 329 -166 329 -161 0 5 -316 165 -327 165 -3 0 -4
-2 -2 -4z"/>
<path d="M22330 7490 c8 -5 20 -10 25 -10 6 0 3 5 -5 10 -8 5 -19 10 -25 10
-5 0 -3 -5 5 -10z"/>
<path d="M22590 7365 c113 -57 210 -104 215 -104 6 0 -82 47 -195 104 -113 57
-209 104 -215 104 -5 0 82 -47 195 -104z"/>
<path d="M22834 7246 c11 -9 24 -16 30 -16 12 0 7 5 -24 19 -24 11 -24 11 -6
-3z"/>
<path d="M23100 7115 c113 -57 210 -104 215 -104 6 0 -82 47 -195 104 -113 57
-209 104 -215 104 -5 0 82 -47 195 -104z"/>
<path d="M23337 6999 c7 -7 15 -10 18 -7 3 3 -2 9 -12 12 -14 6 -15 5 -6 -5z"/>
<path d="M23630 6855 c69 -35 130 -64 135 -64 6 0 -46 29 -115 64 -69 35 -129
64 -135 64 -5 0 46 -29 115 -64z"/>
<path d="M23807 6769 c7 -7 15 -10 18 -7 3 3 -2 9 -12 12 -14 6 -15 5 -6 -5z"/>
<path d="M24050 6650 c96 -49 180 -89 185 -89 6 0 -69 40 -165 89 -96 49 -179
89 -185 89 -5 0 69 -40 165 -89z"/>
<path d="M24990 6190 c30 -16 60 -29 65 -29 6 0 -15 13 -45 29 -30 16 -59 29
-65 29 -5 0 15 -13 45 -29z"/>
<path d="M25290 6046 c0 -2 7 -7 16 -10 8 -3 12 -2 9 4 -6 10 -25 14 -25 6z"/>
<path d="M25400 5990 c41 -21 80 -39 85 -39 6 0 -24 18 -65 39 -41 21 -79 39
-85 39 -5 0 24 -18 65 -39z"/>
<path d="M25830 5780 c19 -11 40 -19 45 -19 6 0 -6 8 -25 19 -19 11 -39 19
-45 19 -5 0 6 -8 25 -19z"/>
</g>
</svg>
